<svg width="888" height="770" viewBox="0 0 888 770" fill="none" xmlns="http://www.w3.org/2000/svg">
<g clip-path="url(#clip0)">
<path d="M49.231 759.086C49.231 759.086 34.8291 732.503 0 743.998L49.231 759.086Z" fill="#E6E6E6"/>
<path d="M50.0986 758.437C50.0986 758.437 32.2877 735.798 57.995 707.555L50.0986 758.437Z" fill="#E6E6E6"/>
<path d="M888 757.412H0V759.412H888V757.412Z" fill="#3F3D56"/>
<path d="M673.871 513.043L693.098 587.815C693.098 587.815 693.81 640.512 698.083 661.163C702.356 681.814 716.598 731.662 716.598 731.662L733.689 734.511L730.128 664.723C730.128 664.723 730.128 622.709 726.568 613.451C723.007 604.194 715.886 509.482 715.886 509.482L673.871 513.043Z" fill="#FBBEBE"/>
<path opacity="0.1" d="M672.871 508.043L692.098 582.815C692.098 582.815 692.81 635.512 697.083 656.163C701.356 676.814 715.598 726.662 715.598 726.662L732.689 729.511L729.128 659.723C729.128 659.723 729.128 617.709 725.568 608.451C722.007 599.194 714.886 504.482 714.886 504.482L672.871 508.043Z" fill="black"/>
<path d="M727.179 199.643H727.179C703.442 199.643 684.199 220.998 684.199 247.34V280.809H694.493L700.452 268.409L698.962 280.809H765.125L770.542 269.536L769.188 280.809H776.637V254.53C776.637 224.217 754.494 199.643 727.179 199.643Z" fill="#2F2E41"/>
<path d="M655.713 501.292C655.713 501.292 647.168 537.61 658.562 541.171C669.955 544.732 667.107 501.292 667.107 501.292H655.713Z" fill="#FBBEBE"/>
<path d="M669.954 316.854L664.257 323.263L665.682 446.46L652.863 504.853L681.348 507.702L695.59 390.202L691.318 330.384L669.954 316.854Z" fill="#D0CDE1"/>
<path opacity="0.1" d="M669.696 316.854L663.999 323.263L665.423 446.46L652.605 504.853L681.09 507.702L695.332 390.202L691.059 330.384L669.696 316.854Z" fill="black"/>
<path d="M723.376 276.133C740.275 276.133 753.974 262.434 753.974 245.536C753.974 228.637 740.275 214.938 723.376 214.938C706.478 214.938 692.779 228.637 692.779 245.536C692.779 262.434 706.478 276.133 723.376 276.133Z" fill="#FBBEBE"/>
<path d="M705.834 263.894C705.834 263.894 714.809 310.401 710.729 315.297C706.65 320.192 753.973 306.322 753.973 306.322C753.973 306.322 738.471 274.501 746.63 256.55L705.834 263.894Z" fill="#FBBEBE"/>
<path d="M783.181 467.823C783.181 467.823 791.726 504.141 780.333 507.702C768.939 511.262 771.787 467.823 771.787 467.823H783.181Z" fill="#FBBEBE"/>
<path d="M717.311 504.497C717.311 504.497 705.205 577.133 705.917 587.815C706.629 598.497 705.917 599.921 705.917 599.921C705.917 599.921 693.811 631.254 690.25 649.057C686.69 666.86 678.856 689.648 678.856 689.648C678.856 689.648 669.599 710.299 677.432 710.299C685.265 710.299 695.947 707.45 695.947 707.45C695.919 699.225 698.681 691.233 703.78 684.779C712.326 673.981 737.962 623.421 737.962 617.012C737.962 610.603 742.235 592.087 742.235 592.087L758.613 513.042L717.311 504.497Z" fill="#FBBEBE"/>
<path d="M667.463 456.073C667.463 456.073 655.357 517.315 666.039 518.739C676.721 520.164 691.675 509.482 710.903 521.588C730.13 533.694 762.175 530.845 762.175 530.845C762.175 530.845 784.251 474.588 764.311 461.058C744.372 447.528 667.463 456.073 667.463 456.073Z" fill="#2F2E41"/>
<path d="M680.993 701.753C684.128 700.389 687.572 699.897 690.963 700.329C694.208 700.81 697.515 700.047 700.221 698.193C700.221 698.193 694.524 718.844 695.236 726.678C695.948 734.511 693.099 767.98 678.145 764.42C663.19 760.859 658.918 750.177 664.615 731.662C670.312 713.147 668.887 691.784 668.887 691.784C668.887 691.784 679.28 681.049 681.205 682.5C683.13 683.95 680.993 701.753 680.993 701.753Z" fill="#2F2E41"/>
<path d="M728.704 728.102C728.704 728.102 721.583 712.436 713.038 726.678C704.492 740.92 703.78 744.481 703.78 744.481C703.78 744.481 679.568 766.556 696.659 768.693C713.75 770.829 727.28 767.981 727.28 764.42C727.28 760.86 735.825 761.572 736.537 758.723C737.25 755.875 735.113 729.526 735.113 729.526L728.704 728.102Z" fill="#2F2E41"/>
<path d="M744.728 287.657C744.728 287.657 714.819 293.354 711.259 292.642C710.457 292.5 709.646 292.414 708.831 292.385C701.868 292.068 694.963 293.781 688.954 297.314C679.037 303.074 664.259 313.326 664.259 323.263C664.259 338.218 683.486 363.854 683.486 363.854C683.486 363.854 665.683 425.096 667.108 430.793C668.532 436.49 656.426 455.717 664.259 462.126C672.092 468.535 746.865 462.126 760.395 468.535C773.925 474.944 767.516 383.081 767.516 383.081C767.516 383.081 803.834 299.763 785.319 291.93C779.328 289.395 774.157 287.457 769.903 285.995C765.807 284.585 761.471 284.006 757.148 284.291C752.826 284.577 748.603 285.721 744.728 287.657V287.657Z" fill="#D0CDE1"/>
<path d="M772.5 292.642L788.84 295.342C788.84 295.342 796 302.612 796 306.172C796 309.733 794.575 463.55 792.439 468.535C790.303 473.52 766.803 471.383 766.803 471.383L771.075 383.793L772.5 292.642Z" fill="#D0CDE1"/>
<path d="M739.398 212.782C737.33 210.005 734.649 207.741 731.565 206.167C728.481 204.593 725.075 203.751 721.612 203.706H720.769C704.499 203.706 691.311 218.428 691.311 236.588V236.588H696.762L697.642 229.887L698.933 236.588H731.265L733.974 230.919L733.297 236.588H739.658C742.626 251.329 738.361 266.069 726.864 280.81H737.699L743.116 269.471L741.762 280.81H762.417L766.48 254.73C766.48 235.199 755.132 218.638 739.398 212.782Z" fill="#2F2E41"/>
<path d="M745.336 215.528C754.227 215.528 761.434 208.32 761.434 199.43C761.434 190.539 754.227 183.332 745.336 183.332C736.446 183.332 729.238 190.539 729.238 199.43C729.238 208.32 736.446 215.528 745.336 215.528Z" fill="#2F2E41"/>
<path d="M563.687 180.243H559.519V66.0767C559.519 57.3994 557.81 48.807 554.49 40.7902C551.169 32.7734 546.302 25.4891 540.166 19.3534C534.03 13.2176 526.746 8.35039 518.729 5.02974C510.712 1.70908 502.12 -2.23245e-05 493.443 3.02691e-10H251.565C242.888 -2.62641e-05 234.295 1.70908 226.279 5.02973C218.262 8.35038 210.978 13.2176 204.842 19.3533C198.706 25.4891 193.839 32.7734 190.518 40.7902C187.197 48.807 185.488 57.3994 185.488 66.0767V692.404C185.488 701.082 187.197 709.674 190.518 717.691C193.839 725.708 198.706 732.992 204.842 739.128C210.978 745.263 218.262 750.131 226.279 753.451C234.295 756.772 242.888 758.481 251.565 758.481H493.443C502.12 758.481 510.712 756.772 518.729 753.451C526.746 750.131 534.03 745.263 540.166 739.128C546.302 732.992 551.169 725.708 554.49 717.691C557.81 709.674 559.519 701.082 559.519 692.404V261.509H563.687V180.243Z" fill="#3F3D56"/>
<path opacity="0.2" d="M496.109 17.1909H464.536C465.988 20.7507 466.542 24.6129 466.15 28.4373C465.757 32.2617 464.43 35.9309 462.286 39.1218C460.142 42.3126 457.245 44.9272 453.853 46.735C450.46 48.5429 446.674 49.4886 442.83 49.4889H304.261C300.417 49.4886 296.631 48.5429 293.238 46.735C289.845 44.9272 286.949 42.3126 284.805 39.1218C282.66 35.9309 281.334 32.2617 280.941 28.4373C280.549 24.6129 281.103 20.7507 282.555 17.1909H253.066C246.586 17.1909 240.169 18.4673 234.182 20.9471C228.196 23.4269 222.756 27.0616 218.174 31.6438C213.591 36.2259 209.957 41.6657 207.477 47.6525C204.997 53.6394 203.721 60.056 203.721 66.5361V691.945C203.721 698.425 204.997 704.842 207.477 710.829C209.957 716.815 213.591 722.255 218.174 726.837C222.756 731.419 228.196 735.054 234.182 737.534C240.169 740.014 246.586 741.29 253.066 741.29H496.109C502.589 741.29 509.005 740.014 514.992 737.534C520.979 735.054 526.419 731.419 531.001 726.837C535.583 722.255 539.218 716.815 541.698 710.829C544.178 704.842 545.454 698.425 545.454 691.945V66.5361C545.454 60.056 544.178 53.6394 541.698 47.6525C539.218 41.6657 535.583 36.2259 531.001 31.6438C526.419 27.0616 520.979 23.4269 514.992 20.9471C509.005 18.4673 502.589 17.1909 496.109 17.1909V17.1909Z" fill="black"/>
<path d="M438.725 436.135H485.549V424.863H438.725V436.135Z" fill="#6C63FF"/>
<path d="M276.574 436.135H293.049V424.863H276.574V436.135Z" fill="#6C63FF"/>
<path d="M243.622 436.135H260.098V424.863H243.622V436.135Z" fill="#6C63FF"/>
<path d="M310.39 436.135H422.248V424.863H310.39V436.135Z" fill="#6C63FF"/>
<path d="M335.536 508.973H352.012V497.701H335.536V508.973Z" fill="#6C63FF"/>
<path d="M302.587 508.973H319.062V497.701H302.587V508.973Z" fill="#6C63FF"/>
<path d="M369.355 508.973H481.213V497.701H369.355V508.973Z" fill="#6C63FF"/>
<path d="M304.32 461.282H351.145V450.009H304.32V461.282Z" fill="#6C63FF"/>
<path d="M241.021 461.282H287.846V450.009H241.021V461.282Z" fill="#6C63FF"/>
<path d="M495.087 461.282H511.562V450.009H495.087V461.282Z" fill="#6C63FF"/>
<path d="M366.753 461.282H478.611V450.009H366.753V461.282Z" fill="#6C63FF"/>
<path d="M448.262 474.289H401.438V485.561H448.262V474.289Z" fill="#6C63FF"/>
<path d="M511.563 474.289H464.738V485.561H511.563V474.289Z" fill="#6C63FF"/>
<path d="M257.497 474.289H241.021V485.561H257.497V474.289Z" fill="#6C63FF"/>
<path d="M385.831 474.289H273.973V485.561H385.831V474.289Z" fill="#6C63FF"/>
<path d="M374.773 330.032C424.186 330.032 464.243 289.975 464.243 240.562C464.243 191.149 424.186 151.092 374.773 151.092C325.36 151.092 285.303 191.149 285.303 240.562C285.303 289.975 325.36 330.032 374.773 330.032Z" fill="#6C63FF"/>
<path fill-rule="evenodd" clip-rule="evenodd" d="M403.973 195H346.934C343.511 195.028 340.235 196.58 337.815 199.321C335.395 202.062 334.024 205.772 334 209.648V274.247C334 278.141 335.36 281.878 337.783 284.642C340.205 287.406 343.495 288.972 346.934 289H403.973C407.428 289 410.741 287.446 413.185 284.679C415.628 281.912 417 278.159 417 274.247V209.648C416.975 205.753 415.592 202.028 413.152 199.284C410.711 196.54 407.412 195 403.973 195V195ZM393.272 207.962C393.272 207.263 393.518 206.593 393.954 206.099C394.39 205.605 394.982 205.327 395.599 205.327H405.555C406.172 205.327 406.764 205.605 407.2 206.099C407.636 206.593 407.881 207.263 407.881 207.962V219.343C407.857 220.023 407.601 220.667 407.168 221.138C406.734 221.61 406.156 221.873 405.555 221.872H395.599C394.997 221.873 394.419 221.61 393.986 221.138C393.552 220.667 393.296 220.023 393.272 219.343V207.962ZM360.24 235.15C361.772 230.904 364.647 227.456 368.303 225.481C371.959 223.506 376.133 223.145 380.011 224.469C383.89 225.792 387.193 228.705 389.277 232.639C391.361 236.573 392.075 241.245 391.281 245.743C390.487 250.241 388.24 254.243 384.981 256.966C381.722 259.69 377.683 260.94 373.653 260.472C369.624 260.004 365.893 257.853 363.189 254.437C360.485 251.021 359.003 246.587 359.03 242C359.047 239.651 359.457 237.326 360.24 235.15V235.15ZM408.16 274.247C408.16 275.504 407.719 276.711 406.934 277.6C406.149 278.489 405.084 278.989 403.973 278.989H346.934C345.84 278.961 344.798 278.449 344.033 277.563C343.268 276.677 342.839 275.486 342.84 274.247V235.15H351.028C350.546 237.393 350.296 239.692 350.284 242C350.284 249.574 352.94 256.838 357.669 262.194C362.398 267.549 368.812 270.558 375.5 270.558C382.188 270.558 388.602 267.549 393.331 262.194C398.06 256.838 400.716 249.574 400.716 242C400.704 239.692 400.454 237.393 399.972 235.15H408.16V274.247Z" fill="white"/>
</g>
<defs>
<clipPath id="clip0">
<rect width="888" height="769.428" fill="white"/>
</clipPath>
</defs>
</svg>
