<svg width="433" height="442" viewBox="0 0 433 442" fill="none" xmlns="http://www.w3.org/2000/svg">    <path d="M185.346 28.3195L0.0429688 80.436L68.5628 324.062L253.866 271.946L185.346 28.3195Z" fill="url(#paint0_linear)"/>    <path d="M186.55 30.2412L0 81.5205L25.6381 174.79L212.188 123.51L186.55 30.2412Z" fill="url(#paint1_linear)"/>    <path d="M184.543 33.081L3.18359 82.9336L68.8825 321.941L250.242 272.088L184.543 33.081Z" fill="#EEEEEE"/>    <path d="M184.687 32.7977L2.91016 82.7651L27.9505 173.86L209.728 123.892L184.687 32.7977Z" fill="#57B894"/>    <path d="M122.556 175.497L73.2461 189.052L74.2795 192.811L123.589 179.257L122.556 175.497Z" fill="#BDBDBD"/>    <path d="M126.693 190.545L77.3828 204.1L78.4163 207.859L127.726 194.305L126.693 190.545Z" fill="#F5F5F5"/>    <path d="M204.024 161.197L75.3164 196.577L76.3499 200.336L205.058 164.957L204.024 161.197Z" fill="#69F0AE"/>    <path d="M132.827 83.6829L83.5176 97.2373L84.551 100.997L133.861 87.4425L132.827 83.6829Z" fill="white"/>    <path d="M165.213 83.7676L85.8145 105.593L86.8479 109.352L166.246 87.5272L165.213 83.7676Z" fill="white"/>    <path opacity="0.2" d="M151.389 99.2588L105.616 111.841C104.639 112.11 104.065 113.119 104.334 114.095L104.51 114.736C104.778 115.713 105.788 116.287 106.764 116.018L152.538 103.436C153.514 103.168 154.088 102.158 153.82 101.182L153.644 100.541C153.375 99.5644 152.366 98.9903 151.389 99.2588Z" fill="black"/>    <path d="M132.56 211.855L83.25 225.409L84.2834 229.169L133.593 215.614L132.56 211.855Z" fill="#BDBDBD"/>    <path d="M136.689 226.903L87.3789 240.457L88.4124 244.217L137.722 230.662L136.689 226.903Z" fill="#F5F5F5"/>    <path d="M214.022 197.554L85.3145 232.934L86.3479 236.693L215.056 201.314L214.022 197.554Z" fill="#E0E0E0"/>    <path d="M65.7603 244.379C70.6083 243.046 73.4581 238.036 72.1255 233.188C70.7928 228.34 65.7824 225.49 60.9344 226.822C56.0864 228.155 53.2366 233.165 54.5692 238.013C55.9018 242.862 60.9123 245.711 65.7603 244.379Z" fill="#E0E0E0"/>    <path d="M142.548 248.208L93.2383 261.762L94.2717 265.522L143.582 251.967L142.548 248.208Z" fill="#BDBDBD"/>    <path d="M146.685 263.25L97.375 276.804L98.4085 280.564L147.718 267.009L146.685 263.25Z" fill="#F5F5F5"/>    <path d="M224.013 233.907L95.3047 269.287L96.3381 273.046L225.046 237.667L224.013 233.907Z" fill="#E0E0E0"/>    <path d="M75.7564 280.736C80.6044 279.403 83.4542 274.393 82.1216 269.545C80.7889 264.697 75.7785 261.847 70.9305 263.18C66.0824 264.512 63.2327 269.523 64.5653 274.371C65.8979 279.219 70.9084 282.069 75.7564 280.736Z" fill="#E0E0E0"/>    <path d="M23.7495 124.549C25.0181 129.039 27.4696 133.087 30.8366 136.252C34.2036 139.418 38.357 141.579 42.8441 142.499C47.3311 143.42 51.9796 143.066 56.2829 141.475C60.5863 139.884 64.3793 137.117 67.2485 133.476C70.1178 129.835 71.9531 125.46 72.5546 120.828C73.1561 116.195 72.5006 111.483 70.6596 107.204C68.8185 102.926 65.8626 99.2457 62.114 96.5647C58.3653 93.8836 53.9678 92.3047 49.4008 92L51.1747 98.3214C51.789 100.525 51.5243 102.887 50.4385 104.891C49.3527 106.896 47.5341 108.38 45.3798 109.02C43.222 109.647 40.9088 109.377 38.9455 108.268C36.9822 107.16 35.5284 105.303 34.9017 103.103L33.1278 96.7818C28.9559 99.862 25.8165 104.182 24.1381 109.151C22.4596 114.121 22.3239 119.498 23.7495 124.549Z" fill="url(#paint2_linear)"/>    <path d="M70.8761 108.39C69.6609 103.971 67.2573 99.9698 63.9273 96.8242C60.5974 93.6786 56.469 91.509 51.9923 90.5518C47.5155 89.5947 42.8623 89.8868 38.54 91.3963C34.2177 92.9058 30.3921 95.5747 27.4805 99.1121C24.5689 102.649 22.683 106.919 22.0284 111.457C21.3738 115.994 21.9757 120.624 23.7684 124.842C25.5611 129.06 28.4758 132.704 32.1947 135.377C35.9137 138.05 40.294 139.649 44.8582 140L43.1493 133.782C42.5609 131.615 42.8525 129.303 43.9603 127.35C45.0681 125.398 46.9023 123.963 49.0624 123.36C51.2264 122.771 53.5353 123.063 55.4851 124.172C57.4349 125.282 58.8673 127.119 59.4696 129.282L61.1785 135.5C65.3833 132.529 68.5707 128.331 70.3061 123.48C72.0416 118.628 72.2406 113.359 70.8761 108.39Z" fill="white"/>    <path d="M378.425 424H315.771V169H432.771L378.425 424Z" fill="url(#paint3_linear)"/>    <path d="M375.356 424H313.771V169H428.771L375.356 424Z" fill="#BDBDBD"/>    <path d="M390.01 90.2058L198.061 110.55L224.808 362.914L416.757 342.57L390.01 90.2058Z" fill="url(#paint4_linear)"/>    <path d="M390.206 89.946L197.814 110.337L208.009 206.527L400.401 186.136L390.206 89.946Z" fill="url(#paint5_linear)"/>    <path d="M387.764 92.4181L200.725 112.242L226.849 358.733L413.888 338.91L387.764 92.4181Z" fill="#F5F5F5"/>    <path d="M387.952 92.1629L200.482 112.032L210.44 205.98L397.909 186.11L387.952 92.1629Z" fill="#6C63FF"/>    <path d="M303.538 222.919L252.684 228.309L253.095 232.186L303.949 226.796L303.538 222.919Z" fill="#BDBDBD"/>    <path d="M305.182 238.433L254.328 243.823L254.739 247.701L305.593 242.311L305.182 238.433Z" fill="#F5F5F5"/>    <path d="M386.242 221.998L253.504 236.066L253.915 239.944L386.653 225.875L386.242 221.998Z" fill="#69F0AE"/>    <path d="M328.541 133.978L277.688 139.368L278.098 143.246L328.952 137.856L328.541 133.978Z" fill="white"/>    <path d="M360.48 139.312L278.596 147.99L279.007 151.868L360.891 143.189L360.48 139.312Z" fill="white"/>    <path opacity="0.2" d="M344.327 152.348L297.12 157.351C296.113 157.458 295.383 158.361 295.49 159.368L295.56 160.029C295.667 161.036 296.57 161.766 297.577 161.659L344.784 156.656C345.791 156.549 346.521 155.646 346.414 154.639L346.344 153.978C346.237 152.971 345.334 152.241 344.327 152.348Z" fill="black"/>    <path d="M232.359 244.193C237.359 243.663 240.982 239.18 240.452 234.18C239.922 229.181 235.44 225.557 230.44 226.087C225.44 226.617 221.816 231.1 222.346 236.099C222.876 241.099 227.359 244.723 232.359 244.193Z" fill="#69F0AE"/>    <path d="M307.514 260.409L256.66 265.799L257.071 269.676L307.925 264.286L307.514 260.409Z" fill="#BDBDBD"/>    <path d="M309.159 275.924L258.305 281.313L258.716 285.191L309.57 279.801L309.159 275.924Z" fill="#F5F5F5"/>    <path d="M390.219 259.488L257.48 273.557L257.891 277.434L390.63 263.365L390.219 259.488Z" fill="#E0E0E0"/>    <path d="M236.335 281.684C241.335 281.154 244.959 276.671 244.429 271.671C243.899 266.671 239.416 263.048 234.416 263.578C229.416 264.108 225.793 268.59 226.323 273.59C226.853 278.59 231.335 282.214 236.335 281.684Z" fill="#E0E0E0"/>    <path d="M311.487 297.9L260.633 303.29L261.044 307.167L311.898 301.777L311.487 297.9Z" fill="#BDBDBD"/>    <path d="M313.129 313.414L262.275 318.804L262.686 322.682L313.54 317.292L313.129 313.414Z" fill="#F5F5F5"/>    <path d="M394.192 296.979L261.453 311.048L261.864 314.925L394.603 300.857L394.192 296.979Z" fill="#E0E0E0"/>    <path d="M240.306 319.174C245.306 318.645 248.929 314.162 248.4 309.162C247.87 304.162 243.387 300.538 238.387 301.068C233.387 301.598 229.764 306.081 230.293 311.081C230.823 316.081 235.306 319.704 240.306 319.174Z" fill="#E0E0E0"/>    <path d="M213.944 156.627C214.478 161.234 216.25 165.603 219.067 169.259C221.885 172.915 225.639 175.717 229.92 177.359C234.201 179.001 238.846 179.421 243.346 178.572C247.847 177.724 252.031 175.64 255.443 172.547C258.854 169.454 261.362 165.471 262.692 161.034C264.023 156.596 264.125 151.873 262.988 147.38C261.85 142.888 259.517 138.798 256.243 135.557C252.968 132.315 248.878 130.047 244.418 129L245.175 135.482C245.424 137.732 244.787 139.991 243.402 141.768C242.017 143.546 239.996 144.699 237.778 144.976C235.549 145.236 233.31 144.592 231.548 143.185C229.787 141.777 228.646 139.721 228.377 137.464L227.62 130.983C223.012 133.311 219.226 137.024 216.778 141.613C214.33 146.203 213.34 151.447 213.944 156.627Z" fill="url(#paint6_linear)"/>    <path d="M263.632 148.681C263.148 144.064 261.424 139.67 258.648 135.978C255.871 132.287 252.149 129.439 247.887 127.746C243.626 126.053 238.987 125.579 234.478 126.377C229.969 127.174 225.763 129.212 222.317 132.268C218.871 135.325 216.318 139.282 214.937 143.709C213.556 148.136 213.399 152.862 214.484 157.373C215.568 161.885 217.853 166.007 221.088 169.292C224.323 172.576 228.385 174.897 232.831 176L232.151 169.503C231.921 167.239 232.583 164.974 233.993 163.204C235.404 161.433 237.448 160.301 239.678 160.055C241.91 159.821 244.143 160.493 245.888 161.924C247.633 163.355 248.749 165.429 248.991 167.692L249.671 174.188C254.302 171.91 258.128 168.239 260.627 163.674C263.125 159.109 264.175 153.873 263.632 148.681Z" fill="#6C63FF"/>    <path d="M239.185 157.341C244.482 156.78 248.32 152.031 247.759 146.734C247.198 141.438 242.449 137.599 237.153 138.161C231.856 138.722 228.018 143.471 228.579 148.767C229.14 154.064 233.889 157.902 239.185 157.341Z" fill="white" stroke="white" stroke-miterlimit="10"/>    <path d="M239.531 160.043C237.245 160.279 235.151 161.363 233.706 163.058C232.26 164.752 231.581 166.92 231.817 169.087L232.514 175.306C238.304 176.644 244.403 176.035 249.771 173.584L249.075 167.365C248.829 165.197 247.687 163.209 245.898 161.837C244.109 160.465 241.82 159.82 239.531 160.043Z" fill="white" stroke="white" stroke-miterlimit="10"/>    <path d="M228.34 148C227.397 146.623 226.857 145.027 226.777 143.379C226.708 141.723 227.315 140.107 228.467 138.875C229.759 137.562 231.643 136.951 233.49 136.62C235.338 136.289 237.215 136.207 239.027 135.626C240.509 135.176 241.885 134.447 243.072 133.481C244.26 132.516 245.237 131.332 245.945 130C246.281 131.355 246.421 132.747 246.362 134.138C246.328 134.835 246.147 135.517 245.829 136.144C245.511 136.77 245.064 137.328 244.515 137.782C245.921 136.969 245.933 138.532 245.722 139.497C246.549 140.276 248.348 140.235 248.566 141.334C248.84 142.418 248.84 143.55 248.566 144.635C248.228 145.698 248.91 147.448 247.769 147.64" fill="white"/>    <path d="M228.34 148C227.397 146.623 226.857 145.027 226.777 143.379C226.708 141.723 227.315 140.107 228.467 138.875C229.759 137.562 231.643 136.951 233.49 136.62C235.338 136.289 237.215 136.207 239.027 135.626C240.509 135.176 241.885 134.447 243.072 133.481C244.26 132.516 245.237 131.332 245.945 130C246.281 131.355 246.421 132.747 246.362 134.138C246.328 134.835 246.147 135.517 245.829 136.144C245.511 136.77 245.064 137.328 244.515 137.782C245.921 136.969 245.933 138.532 245.722 139.497C246.549 140.276 248.348 140.235 248.566 141.334C248.84 142.418 248.84 143.55 248.566 144.635C248.228 145.698 248.91 147.448 247.769 147.64" stroke="white" stroke-miterlimit="10"/>    <path d="M244.771 138C244.771 138 251.27 137.879 247.701 148L244.771 138Z" fill="white"/>    <path d="M323.771 0H130.771V254H323.771V0Z" fill="url(#paint7_linear)"/>    <path d="M323.771 0H130.771V96H323.771V0Z" fill="url(#paint8_linear)"/>    <path d="M321.771 2H132.771V250H321.771V2Z" fill="#F5F5F5"/>    <path d="M321.771 2H132.771V96H321.771V2Z" fill="#6C63FF"/>    <path d="M223.771 123H172.771V127H223.771V123Z" fill="#BDBDBD"/>    <path d="M223.771 138H172.771V142H223.771V138Z" fill="#F5F5F5"/>    <path d="M305.771 131H172.771V134H305.771V131Z" fill="#69F0AE"/>    <path opacity="0.2" d="M271.943 57H224.6C223.59 57 222.771 57.758 222.771 58.6931V59.3068C222.771 60.2419 223.59 61 224.6 61H271.943C272.953 61 273.771 60.2419 273.771 59.3068V58.6931C273.771 57.758 272.953 57 271.943 57Z" fill="black"/>    <path d="M150.771 136C155.742 136 159.771 131.971 159.771 127C159.771 122.029 155.742 118 150.771 118C145.801 118 141.771 122.029 141.771 127C141.771 131.971 145.801 136 150.771 136Z" fill="#69F0AE"/>    <path d="M223.771 160H172.771V164H223.771V160Z" fill="#BDBDBD"/>    <path d="M223.771 176H172.771V180H223.771V176Z" fill="#F5F5F5"/>    <path d="M305.771 168H172.771V172H305.771V168Z" fill="#E0E0E0"/>    <path d="M150.771 174C155.742 174 159.771 169.971 159.771 165C159.771 160.029 155.742 156 150.771 156C145.801 156 141.771 160.029 141.771 165C141.771 169.971 145.801 174 150.771 174Z" fill="#E0E0E0"/>    <path d="M223.771 198H172.771V202H223.771V198Z" fill="#BDBDBD"/>    <path d="M223.771 214H172.771V218H223.771V214Z" fill="#F5F5F5"/>    <path d="M305.771 206H172.771V210H305.771V206Z" fill="#E0E0E0"/>    <path d="M150.771 212C155.742 212 159.771 207.971 159.771 203C159.771 198.029 155.742 194 150.771 194C145.801 194 141.771 198.029 141.771 203C141.771 207.971 145.801 212 150.771 212Z" fill="#E0E0E0"/>    <path d="M141.773 47.1218C141.831 51.7336 143.143 56.2411 145.568 60.1529C147.992 64.0647 151.436 67.2307 155.523 69.3059C159.61 71.381 164.184 72.2857 168.747 71.9212C173.309 71.5568 177.685 69.9372 181.397 67.239C185.108 64.5408 188.014 60.8676 189.797 56.6197C191.58 52.3718 192.171 47.7122 191.507 43.1489C190.842 38.5855 188.948 34.2934 186.03 30.7405C183.111 27.1876 179.281 24.5101 174.957 23L175.034 29.4893C175.061 31.7578 174.192 33.9442 172.62 35.5678C171.048 37.1914 168.9 38.1193 166.649 38.1476C164.406 38.1683 162.246 37.2939 160.641 35.7152C159.036 34.1365 158.115 31.9818 158.081 29.7217L158.004 23.2324C153.191 25.0508 149.05 28.3197 146.146 32.5943C143.241 36.8689 141.715 41.9415 141.773 47.1218Z" fill="url(#paint9_linear)"/>    <path d="M191.771 44.2348C191.769 39.613 190.511 35.0804 188.133 31.1311C185.756 27.1818 182.35 23.9675 178.288 21.8383C174.226 19.7092 169.663 18.7471 165.096 19.0567C160.53 19.3664 156.135 20.9361 152.391 23.5946C148.647 26.2531 145.698 29.8985 143.865 34.1333C142.032 38.3681 141.385 43.0299 141.994 47.6105C142.604 52.1911 144.448 56.5148 147.324 60.1101C150.2 63.7055 153.998 66.4346 158.304 68V61.4914C158.31 59.2256 159.204 57.0543 160.791 55.4521C162.378 53.8499 164.528 52.947 166.772 52.9407C169.015 52.947 171.165 53.8499 172.752 55.4521C174.339 57.0543 175.233 59.2256 175.239 61.4914V67.994C180.08 66.2323 184.266 63.0054 187.224 58.7535C190.183 54.5016 191.771 49.4315 191.771 44.2348Z" fill="#6C63FF"/>    <path d="M166.271 53C164.019 53.0065 161.861 53.9345 160.268 55.5813C158.675 57.2282 157.778 59.4599 157.771 61.7888V68.4725C163.267 70.5092 169.276 70.5092 174.771 68.4725V61.7888C174.765 59.4599 173.868 57.2282 172.275 55.5813C170.682 53.9345 168.524 53.0065 166.271 53Z" fill="white" stroke="white" stroke-miterlimit="10"/>    <path d="M113.353 180.519L71.1729 151H12.7715V180.519V194.979V442H377.771V180.519H113.353Z" fill="url(#paint10_linear)"/>    <path d="M15.7715 184V198.05V438H375.772V184H114.978" fill="white"/>    <path d="M114.771 184L73.2519 155H15.7715V184" fill="#BDBDBD"/>    <path d="M294.771 221H96.7715V400H294.771V221Z" fill="url(#paint11_linear)"/>    <path d="M292.771 222H98.7715V397H292.771V222Z" fill="white"/>    <path d="M235.771 353H158.771V359H235.771V353Z" fill="#BDBDBD"/>    <path d="M278.771 366H112.771V372H278.771V366Z" fill="#E0E0E0"/>    <path d="M278.771 378H112.771V384H278.771V378Z" fill="#E0E0E0"/>    <path d="M148.775 289.286C148.882 297.945 151.349 306.408 155.907 313.753C160.464 321.097 166.937 327.042 174.62 330.939C182.303 334.836 190.902 336.536 199.479 335.853C208.055 335.17 216.281 332.13 223.26 327.065C230.238 322.001 235.702 315.105 239.055 307.131C242.408 299.156 243.522 290.408 242.276 281.839C241.029 273.271 237.47 265.212 231.986 258.54C226.502 251.867 219.303 246.838 211.175 244L211.322 256.188C211.361 260.432 209.73 264.519 206.785 267.557C203.84 270.594 199.82 272.335 195.604 272.399C191.388 272.439 187.327 270.797 184.309 267.833C181.291 264.869 179.562 260.823 179.498 256.579L179.351 244.391C170.283 247.797 162.481 253.936 157.008 261.971C151.536 270.006 148.661 279.545 148.775 289.286Z" fill="url(#paint12_linear)"/>    <path d="M243.771 284.391C243.77 275.712 241.381 267.201 236.864 259.785C232.348 252.368 225.878 246.331 218.16 242.332C210.442 238.333 201.771 236.526 193.094 237.106C184.417 237.687 176.066 240.633 168.951 245.625C161.837 250.616 156.233 257.461 152.749 265.413C149.265 273.364 148.036 282.118 149.195 290.719C150.355 299.319 153.858 307.438 159.324 314.188C164.789 320.938 172.007 326.062 180.19 329V316.788C180.208 312.542 181.905 308.475 184.914 305.472C187.923 302.47 191.999 300.776 196.254 300.759C200.509 300.776 204.584 302.47 207.593 305.472C210.602 308.475 212.3 312.542 212.317 316.788V329C221.524 325.7 229.486 319.644 235.116 311.66C240.745 303.676 243.768 294.153 243.771 284.391Z" fill="#BDBDBD"/>    <path d="M197.771 291.836C197.771 290.27 196.428 289 194.771 289C193.115 289 191.771 290.27 191.771 291.836V306.164C191.771 307.73 193.115 309 194.771 309C196.428 309 197.771 307.73 197.771 306.164V291.836Z" fill="white" stroke="white" stroke-miterlimit="10"/>    <path d="M194.771 292C204.713 292 212.771 283.941 212.771 274C212.771 264.059 204.713 256 194.771 256C184.83 256 176.771 264.059 176.771 274C176.771 283.941 184.83 292 194.771 292Z" fill="white" stroke="white" stroke-miterlimit="10"/>    <path d="M194.751 297C190.518 297.017 186.464 298.71 183.471 301.709C180.478 304.709 178.789 308.772 178.771 313.013V325.213C189.116 328.929 200.427 328.929 210.771 325.213V313.037C210.761 308.784 209.069 304.709 206.066 301.703C203.063 298.697 198.995 297.006 194.751 297Z" fill="white" stroke="white" stroke-miterlimit="10"/>    <path d="M176.709 272.87C175.275 270.06 174.616 266.911 174.802 263.753C175.008 260.579 176.431 257.613 178.768 255.487C181.375 253.237 184.91 252.44 188.327 252.162C191.745 251.885 195.203 252.05 198.563 251.383C201.341 250.813 203.979 249.69 206.325 248.079C208.671 246.469 210.677 244.402 212.228 242C212.443 244.657 212.659 247.356 212.152 249.977C211.644 252.599 210.315 255.168 208.069 256.567C210.787 255.292 210.49 258.28 209.901 260.069C211.248 261.716 214.52 261.988 214.689 264.119C214.858 266.251 214.829 268.454 214.006 270.42C213.184 272.386 214.065 275.846 211.965 276" fill="white"/>    <path d="M176.709 272.87C175.275 270.06 174.616 266.911 174.802 263.753C175.008 260.579 176.431 257.613 178.768 255.487C181.375 253.237 184.91 252.44 188.327 252.162C191.745 251.885 195.203 252.05 198.563 251.383C201.341 250.813 203.979 249.69 206.325 248.079C208.671 246.469 210.677 244.402 212.228 242C212.443 244.657 212.659 247.356 212.152 249.977C211.644 252.599 210.315 255.168 208.069 256.567C210.787 255.292 210.49 258.28 209.901 260.069C211.248 261.716 214.52 261.988 214.689 264.119C214.858 266.251 214.829 268.454 214.006 270.42C213.184 272.386 214.065 275.846 211.965 276" stroke="white" stroke-miterlimit="10"/>    <path d="M208.771 256C208.771 256 221.641 257.111 212.48 276L208.771 256Z" fill="white"/>    <defs>        <linearGradient id="paint0_linear" x1="161.212" y1="298.005" x2="92.6918" y2="54.3786" gradientUnits="userSpaceOnUse">            <stop stop-color="#808080" stop-opacity="0.25"/>            <stop offset="0.54" stop-color="#808080" stop-opacity="0.12"/>            <stop offset="1" stop-color="#808080" stop-opacity="0.1"/>        </linearGradient>        <linearGradient id="paint1_linear" x1="118.911" y1="149.144" x2="93.2733" y2="55.8751" gradientUnits="userSpaceOnUse">            <stop stop-color="#B3B3B3" stop-opacity="0.25"/>            <stop offset="0.54" stop-color="#B3B3B3" stop-opacity="0.1"/>            <stop offset="1" stop-color="#B3B3B3" stop-opacity="0.05"/>        </linearGradient>        <linearGradient id="paint2_linear" x1="55.4518" y1="143.653" x2="39.2222" y2="96.5847" gradientUnits="userSpaceOnUse">            <stop stop-opacity="0.12"/>            <stop offset="0.55" stop-opacity="0.09"/>            <stop offset="1" stop-opacity="0.02"/>        </linearGradient>        <linearGradient id="paint3_linear" x1="74117" y1="182303" x2="74117" y2="73042.9" gradientUnits="userSpaceOnUse">            <stop stop-color="#808080" stop-opacity="0.25"/>            <stop offset="0.54" stop-color="#808080" stop-opacity="0.12"/>            <stop offset="1" stop-color="#808080" stop-opacity="0.1"/>        </linearGradient>        <linearGradient id="paint4_linear" x1="159744" y1="154873" x2="148306" y2="46957.4" gradientUnits="userSpaceOnUse">            <stop stop-color="#808080" stop-opacity="0.25"/>            <stop offset="0.54" stop-color="#808080" stop-opacity="0.12"/>            <stop offset="1" stop-color="#808080" stop-opacity="0.1"/>        </linearGradient>        <linearGradient id="paint5_linear" x1="146225" y1="24287.4" x2="144563" y2="8610.34" gradientUnits="userSpaceOnUse">            <stop stop-color="#B3B3B3" stop-opacity="0.25"/>            <stop offset="0.54" stop-color="#B3B3B3" stop-opacity="0.1"/>            <stop offset="1" stop-color="#B3B3B3" stop-opacity="0.05"/>        </linearGradient>        <linearGradient id="paint6_linear" x1="-32058.7" y1="-12499.8" x2="-32721" y2="-16577.2" gradientUnits="userSpaceOnUse">            <stop stop-opacity="0.12"/>            <stop offset="0.55" stop-opacity="0.09"/>            <stop offset="1" stop-opacity="0.02"/>        </linearGradient>        <linearGradient id="paint7_linear" x1="74034.3" y1="108720" x2="74034.3" y2="101.605" gradientUnits="userSpaceOnUse">            <stop stop-color="#808080" stop-opacity="0.25"/>            <stop offset="0.54" stop-color="#808080" stop-opacity="0.12"/>            <stop offset="1" stop-color="#808080" stop-opacity="0.1"/>        </linearGradient>        <linearGradient id="paint8_linear" x1="74034.3" y1="15647" x2="74034.3" y2="0" gradientUnits="userSpaceOnUse">            <stop stop-color="#B3B3B3" stop-opacity="0.25"/>            <stop offset="0.54" stop-color="#B3B3B3" stop-opacity="0.1"/>            <stop offset="1" stop-color="#B3B3B3" stop-opacity="0.05"/>        </linearGradient>        <linearGradient id="paint9_linear" x1="-36392.8" y1="-23747.8" x2="-36599.2" y2="-27792.8" gradientUnits="userSpaceOnUse">            <stop stop-opacity="0.12"/>            <stop offset="0.55" stop-opacity="0.09"/>            <stop offset="1" stop-opacity="0.02"/>        </linearGradient>        <linearGradient id="paint10_linear" x1="120028" y1="217278" x2="120028" y2="74329.8" gradientUnits="userSpaceOnUse">            <stop stop-color="#808080" stop-opacity="0.25"/>            <stop offset="0.54" stop-color="#808080" stop-opacity="0.12"/>            <stop offset="1" stop-color="#808080" stop-opacity="0.1"/>        </linearGradient>        <linearGradient id="paint11_linear" x1="65306.1" y1="121048" x2="65306.1" y2="66989.8" gradientUnits="userSpaceOnUse">            <stop stop-color="#808080" stop-opacity="0.25"/>            <stop offset="0.54" stop-color="#808080" stop-opacity="0.12"/>            <stop offset="1" stop-color="#808080" stop-opacity="0.1"/>        </linearGradient>        <linearGradient id="paint12_linear" x1="-63994.5" y1="-4150.44" x2="-64726" y2="-18488.3" gradientUnits="userSpaceOnUse">            <stop stop-opacity="0.12"/>            <stop offset="0.55" stop-opacity="0.09"/>            <stop offset="1" stop-opacity="0.02"/>        </linearGradient>    </defs></svg>