<svg width="805" height="611" viewBox="0 0 805 611" fill="none" xmlns="http://www.w3.org/2000/svg">
<g clip-path="url(#clip0)">
<path d="M717.421 610.283C759.574 610.283 793.746 602.411 793.746 592.7C793.746 582.989 759.574 575.117 717.421 575.117C675.268 575.117 641.096 582.989 641.096 592.7C641.096 602.411 675.268 610.283 717.421 610.283Z" fill="#E6E6E6"/>
<path d="M716.42 143.137V166.137L728.42 196.137L747.42 162.137V136.137L716.42 143.137Z" fill="#FFB8B8"/>
<path d="M662.919 321.637L659.919 343.637C659.919 343.637 652.919 367.637 662.919 367.637C672.919 367.637 672.919 341.637 672.919 341.637L674.919 326.637L662.919 321.637Z" fill="#FFB8B8"/>
<path d="M783.919 318.637L780.919 340.637C780.919 340.637 773.919 364.637 783.919 364.637C793.919 364.637 793.919 338.637 793.919 338.637L795.919 323.637L783.919 318.637Z" fill="#FFB8B8"/>
<path d="M691.42 296.137L686.714 297.437C686.714 297.437 674.42 377.137 673.42 419.137C672.42 461.137 670.42 567.137 670.42 567.137H702.42L723.42 387.137L733.42 567.137H767.42C767.42 567.137 781.42 331.137 772.42 312.137C763.42 293.137 691.42 296.137 691.42 296.137Z" fill="#2F2E41"/>
<path d="M672.42 565.137L663.42 579.137C663.42 579.137 638.42 600.137 660.42 599.137C682.42 598.137 691.42 588.137 691.42 588.137V591.137L703.42 587.137L701.42 565.137H672.42Z" fill="#2F2E41"/>
<path d="M764.42 565.137L773.42 579.137C773.42 579.137 798.42 600.137 776.42 599.137C754.42 598.137 745.42 588.137 745.42 588.137V591.137L733.42 587.137L735.42 565.137H764.42Z" fill="#2F2E41"/>
<path d="M728.92 148.636C741.07 148.636 750.92 138.786 750.92 126.636C750.92 114.486 741.07 104.636 728.92 104.636C716.77 104.636 706.92 114.486 706.92 126.636C706.92 138.786 716.77 148.636 728.92 148.636Z" fill="#FFB8B8"/>
<path d="M727.42 181.137L716.42 158.613L711.42 170.137L709.42 269.137L755.42 166.137L747.42 157.29L727.42 181.137Z" fill="#575A89"/>
<path d="M788.42 186.137L751.956 162.307C751.956 162.307 749.42 185.137 726.42 183.137C703.42 181.137 714.17 163.795 714.17 163.795L677.42 184.137L691.42 262.137L685.42 307.137C685.42 307.137 739.42 301.137 751.42 310.137C758.428 315.477 766.694 318.921 775.42 320.137L773.42 243.137L788.42 186.137Z" fill="#D1D1D1"/>
<path d="M777.42 190.137L784.338 183.469L789.42 187.137C789.42 187.137 794.42 193.137 798.42 211.137C802.42 229.137 800.42 309.137 800.42 309.137L778.42 306.137L779.42 273.137L770.42 229.137L777.42 190.137Z" fill="#D1D1D1"/>
<path d="M684.42 183.137L680.642 182.353L677.42 184.137C677.42 184.137 668.42 196.137 668.42 207.137C668.42 218.137 659.42 312.137 659.42 312.137L679.42 321.137L693.42 250.137L684.42 183.137Z" fill="#D1D1D1"/>
<path d="M803.418 311.137C803.418 311.137 783.418 299.137 776.418 307.137C769.418 315.137 780.418 323.137 780.418 323.137C780.418 323.137 811.418 335.137 803.418 311.137Z" fill="#575A89"/>
<path d="M681.418 317.137C681.418 317.137 661.418 305.137 654.418 313.137C647.418 321.137 658.418 329.137 658.418 329.137C658.418 329.137 689.418 341.137 681.418 317.137Z" fill="#575A89"/>
<path d="M748.187 110.506C748.187 110.506 753.941 99.5061 741.282 98.5061C741.282 98.5061 729.774 91.5061 720.567 99.5061C720.567 99.5061 712.511 97.5061 710.209 103.506C710.209 103.506 709.058 100.506 712.509 98.5061C712.509 98.5061 704.453 96.5061 704.453 106.506C704.453 106.506 701 116.506 704.453 125.506C707.906 134.506 709.053 135.506 709.053 135.506C709.053 135.506 703.379 116.637 717.19 115.637C731.001 114.637 746.456 106.006 747.607 117.006C748.758 128.006 751.06 131.006 751.06 131.006C751.06 131.006 761.422 115.006 748.187 110.506Z" fill="#2F2E41"/>
<path d="M268.29 524.304H268.153C263.04 524.304 257.864 524.152 252.771 523.851L252.847 522.565C257.916 522.865 263.066 523.016 268.154 523.016H268.291L268.29 524.304ZM283.814 523.834L283.737 522.548C288.86 522.241 294.037 521.774 299.124 521.16L299.279 522.439C294.166 523.057 288.963 523.526 283.819 523.835L283.814 523.834ZM237.304 522.472C232.184 521.86 227.017 521.084 221.948 520.165L222.178 518.896C227.221 519.81 232.362 520.583 237.457 521.196L237.304 522.472ZM314.632 520.114L314.4 518.845C319.446 517.925 324.529 516.836 329.507 515.611L329.815 516.862C324.815 518.093 319.703 519.187 314.631 520.113L314.632 520.114ZM206.76 516.926C201.753 515.7 196.718 514.303 191.796 512.775L192.179 511.544C197.079 513.065 202.086 514.454 207.068 515.675L206.76 516.926ZM344.775 512.692L344.391 511.461C349.281 509.937 354.191 508.24 358.991 506.416L359.449 507.622C354.627 509.456 349.689 511.163 344.775 512.695V512.692ZM177.084 507.711C172.262 505.885 167.427 503.883 162.713 501.762L163.242 500.586C167.932 502.697 172.742 504.686 177.542 506.505L177.084 507.711ZM373.772 501.679L373.242 500.503C377.91 498.403 382.576 496.121 387.11 493.736L387.71 494.876C383.153 497.277 378.464 499.566 373.772 501.682V501.679ZM148.734 494.95C144.162 492.55 139.608 489.978 135.197 487.307L135.864 486.207C140.253 488.864 144.784 491.423 149.333 493.813L148.734 494.95ZM401.219 487.245L400.552 486.145C404.936 483.489 409.297 480.664 413.511 477.75L414.244 478.81C410.005 481.736 405.619 484.575 401.219 487.245ZM122.155 478.865C117.909 475.931 113.699 472.83 109.642 469.651L110.442 468.636C114.478 471.801 118.667 474.885 122.892 477.805L122.155 478.865ZM426.739 469.599L425.939 468.584C429.985 465.409 433.976 462.084 437.802 458.684L438.658 459.648C434.812 463.058 430.801 466.404 426.735 469.595L426.739 469.599ZM97.709 459.699C93.848 456.279 90.042 452.699 86.397 449.055L87.308 448.144C90.935 451.768 94.722 455.332 98.563 458.735L97.709 459.699ZM449.967 448.999L449.056 448.088C452.688 444.456 456.256 440.671 459.656 436.837L460.62 437.693C457.204 441.546 453.62 445.35 449.97 448.999H449.967ZM75.747 437.751C72.323 433.892 68.975 429.882 65.796 425.833L66.809 425.033C69.973 429.061 73.309 433.051 76.709 436.891L75.747 437.751ZM470.568 425.776L469.553 424.976C472.728 420.929 475.814 416.741 478.727 412.531L479.787 413.264C476.861 417.5 473.759 421.709 470.568 425.776ZM56.576 413.352C53.641 409.112 50.799 404.732 48.132 400.334L49.232 399.664C51.887 404.042 54.714 408.4 57.632 412.619L56.576 413.352ZM488.24 400.226L487.14 399.559C489.802 395.166 492.363 390.636 494.752 386.094L495.892 386.694C493.489 391.256 490.919 395.809 488.24 400.226ZM40.489 386.832C38.089 382.275 35.798 377.586 33.68 372.897L34.854 372.366C36.962 377.032 39.241 381.697 41.629 386.23L40.489 386.832ZM502.708 372.717L501.532 372.188C503.648 367.488 505.642 362.682 507.458 357.888L508.664 358.346C506.837 363.16 504.833 367.995 502.707 372.714L502.708 372.717ZM27.729 358.581C25.895 353.761 24.186 348.824 22.65 343.906L23.88 343.521C25.409 348.414 27.109 353.327 28.933 358.121L27.729 358.581ZM513.739 343.641L512.508 343.258C514.032 338.358 515.425 333.351 516.647 328.372L517.898 328.679C516.669 333.683 515.27 338.717 513.739 343.64V343.641ZM18.474 328.948C17.24 323.948 16.144 318.841 15.215 313.765L16.483 313.533C17.408 318.583 18.499 323.665 19.726 328.638L18.474 328.948ZM521.142 313.492L519.873 313.26C520.789 308.217 521.565 303.078 522.173 297.984L523.452 298.138C522.842 303.256 522.063 308.426 521.142 313.491V313.492ZM12.882 298.414C12.263 293.302 11.791 288.1 11.482 282.95L12.768 282.872C13.078 287.995 13.548 293.172 14.168 298.258L12.882 298.414ZM524.844 282.672L523.558 282.596C523.858 277.482 524.016 272.287 524.016 267.152V266.607H525.305V267.152C525.305 272.312 525.15 277.533 524.844 282.672ZM12.289 267.426H11V267.153C11 262.082 11.149 256.953 11.444 251.907L12.73 251.983C12.437 257.004 12.288 262.108 12.288 267.154L12.289 267.426ZM523.524 251.163C523.208 246.034 522.732 240.857 522.112 235.778L523.391 235.622C524.015 240.727 524.491 245.929 524.811 251.084L523.524 251.163ZM14.095 236.593L12.815 236.441C13.425 231.321 14.198 226.154 15.115 221.084L16.384 221.313C15.471 226.358 14.701 231.499 14.095 236.593V236.593ZM519.773 220.506C518.84 215.449 517.744 210.367 516.513 205.406L517.764 205.096C519.001 210.086 520.103 215.196 521.041 220.275L519.773 220.506ZM19.595 206.197L18.343 205.891C19.566 200.891 20.96 195.851 22.487 190.925L23.718 191.306C22.199 196.206 20.812 201.217 19.596 206.197H19.595ZM512.343 190.526C510.81 185.632 509.104 180.721 507.275 175.926L508.475 175.467C510.314 180.282 512.029 185.218 513.575 190.137L512.343 190.526ZM28.75 176.667L27.544 176.211C29.369 171.387 31.368 166.551 33.486 161.836L34.662 162.365C32.554 167.056 30.565 171.868 28.75 176.667ZM501.34 161.691C499.228 157.027 496.94 152.365 494.549 147.834L495.689 147.234C498.095 151.787 500.389 156.473 502.513 161.161L501.34 161.691ZM41.429 148.454L40.287 147.854C42.679 143.293 45.248 138.737 47.923 134.313L49.023 134.98C46.366 139.383 43.81 143.916 41.429 148.454ZM486.929 134.409C484.269 130.037 481.437 125.681 478.512 121.464L479.572 120.729C482.512 124.968 485.357 129.345 488.03 133.74L486.929 134.409ZM57.419 121.994L56.358 121.261C59.284 117.022 62.382 112.811 65.565 108.744L66.58 109.538C63.419 113.586 60.333 117.776 57.419 121.994ZM469.329 109.044C466.153 105.012 462.817 101.026 459.414 97.1959L460.378 96.3399C463.798 100.187 467.15 104.193 470.341 108.247L469.329 109.044ZM76.475 97.6619L75.51 96.8069C78.926 92.9469 82.51 89.1389 86.147 85.4909L87.06 86.4009C83.435 90.0319 79.874 93.8199 76.475 97.6619ZM448.809 85.9619C445.167 82.3339 441.377 78.7739 437.542 75.3829L438.395 74.4179C442.249 77.8259 446.06 81.4029 449.718 85.0499L448.809 85.9619ZM98.298 75.7959L97.442 74.8319C101.289 71.4139 105.297 68.0639 109.354 64.8739L110.154 65.8869C106.119 69.0609 102.127 72.3949 98.298 75.7959ZM425.659 65.4959C421.62 62.3359 417.428 59.2559 413.198 56.3409L413.931 55.2799C418.181 58.2089 422.394 61.3049 426.452 64.4799L425.659 65.4959ZM122.574 56.7079L121.84 55.6479C126.076 52.7129 130.454 49.8689 134.856 47.1969L135.525 48.2969C131.146 50.9559 126.789 53.7859 122.574 56.7069V56.7079ZM400.207 47.9529C395.807 45.2969 391.273 42.7439 386.731 40.3629L387.331 39.2209C391.897 41.6139 396.454 44.1799 400.876 46.8489L400.207 47.9529ZM148.954 40.6889L148.354 39.5489C152.909 37.1489 157.596 34.8489 162.285 32.7319L162.816 33.9059C158.15 36.0159 153.487 38.2979 148.956 40.6889H148.954ZM372.819 33.6049C368.128 31.5049 363.319 29.5139 358.514 27.7049L358.97 26.4989C363.796 28.3209 368.632 30.3169 373.347 32.4329L372.819 33.6049ZM177.059 27.9809L176.6 26.7809C181.422 24.9439 186.359 23.2329 191.274 21.6949L191.659 22.9249C186.765 24.4499 181.853 26.1529 177.056 27.9809H177.059ZM343.87 22.6809C338.97 21.1649 333.958 19.7809 328.977 18.5659L329.283 17.3139C334.283 18.5339 339.324 19.9259 344.251 21.4499L343.87 22.6809ZM206.537 18.7609L206.227 17.5099C211.233 16.2719 216.341 15.1729 221.408 14.2429L221.641 15.5109C216.6 16.4359 211.518 17.5299 206.541 18.7619L206.537 18.7609ZM313.863 15.3609C308.825 14.4519 303.684 13.6839 298.582 13.0799L298.733 11.7999C303.861 12.4069 309.028 13.1779 314.092 14.0919L313.863 15.3609ZM236.914 13.1779L236.758 11.8979C241.867 11.2759 247.069 10.7979 252.221 10.4859L252.299 11.7719C247.173 12.0849 241.999 12.5569 236.914 13.1719V13.1779ZM283.189 11.7259C278.211 11.4379 273.153 11.2919 268.153 11.2919H267.743V10.0029H268.153C273.177 10.0029 278.262 10.1499 283.263 10.4399L283.189 11.7259Z" fill="#3F3B56"/>
<path d="M527.61 430.255H374.797V544.865H527.61V430.255Z" fill="#57B894"/>
<path d="M508.506 460.818H393.896V468.459H508.506V460.818Z" fill="white"/>
<path d="M508.506 483.74H393.896V491.381H508.506V483.74Z" fill="white"/>
<path d="M508.506 506.662H393.896V514.303H508.506V506.662Z" fill="white"/>
<path d="M114.739 0H8V80.054H114.739V0Z" fill="#E6E6E6"/>
<path d="M101.396 21.3481H21.3418V26.6851H101.396V21.3481Z" fill="white"/>
<path d="M101.396 37.3579H21.3418V42.6949H101.396V37.3579Z" fill="white"/>
<path d="M101.396 53.3691H21.3418V58.7061H101.396V53.3691Z" fill="white"/>
<path d="M160.102 41.3608H53.3633V121.415H160.102V41.3608Z" fill="#57B894"/>
<path d="M146.759 62.709H66.7051V68.046H146.759V62.709Z" fill="white"/>
<path d="M146.759 78.7202H66.7051V84.0572H146.759V78.7202Z" fill="white"/>
<path d="M146.759 94.73H66.7051V100.067H146.759V94.73Z" fill="white"/>
<path d="M414 376H123V158H414V376ZM126 161V373H411V161H126Z" fill="#E6E6E6"/>
<path d="M106.739 411H0V491.054H106.739V411Z" fill="#E6E6E6"/>
<path d="M93.3958 432.348H13.3418V437.685H93.3958V432.348Z" fill="white"/>
<path d="M93.3958 448.358H13.3418V453.695H93.3958V448.358Z" fill="white"/>
<path d="M93.3958 464.369H13.3418V469.706H93.3958V464.369Z" fill="white"/>
<mask id="mask0" mask-type="alpha" maskUnits="userSpaceOnUse" x="174" y="96" width="188" height="325">
<path d="M268 145.096C287.131 145.096 302.69 160.655 302.69 179.787C302.69 198.86 287.131 214.419 268 214.419C248.869 214.419 233.31 198.86 233.31 179.787C233.31 160.655 248.869 145.096 268 145.096ZM268 263.515C314.215 263.515 351.787 225.944 351.787 179.787C351.787 133.571 314.215 96 268 96C221.785 96 184.271 133.571 184.271 179.787C184.271 225.944 221.785 263.515 268 263.515ZM301.883 331.859C318.94 327.94 335.363 321.198 350.519 311.69C361.986 304.487 365.444 289.331 358.241 277.864C350.98 266.339 335.882 262.882 324.357 270.142C290.07 291.694 245.93 291.694 211.585 270.142C200.118 262.882 184.963 266.339 177.759 277.864C170.556 289.331 174.014 304.487 185.481 311.69C200.637 321.198 217.06 327.94 234.117 331.859L187.268 378.65C177.702 388.216 177.702 403.774 187.268 413.34C192.108 418.123 198.332 420.543 204.613 420.543C210.894 420.543 217.175 418.123 222.015 413.34L268 367.355L314.042 413.34C323.608 422.963 339.109 422.963 348.732 413.34C358.298 403.774 358.298 388.216 348.732 378.65L301.883 331.859Z" fill="black"/>
</mask>
<g mask="url(#mask0)">
<g filter="url(#filter0_d)">
<rect x="-271.838" y="-218.708" width="1062.14" height="786.771" rx="30" fill="#6C63FF"/>
</g>
</g>
</g>
<defs>
<filter id="filter0_d" x="-286.838" y="-233.708" width="1092.14" height="816.771" filterUnits="userSpaceOnUse" color-interpolation-filters="sRGB">
<feFlood flood-opacity="0" result="BackgroundImageFix"/>
<feColorMatrix in="SourceAlpha" type="matrix" values="0 0 0 0 0 0 0 0 0 0 0 0 0 0 0 0 0 0 127 0"/>
<feOffset/>
<feGaussianBlur stdDeviation="7.5"/>
<feColorMatrix type="matrix" values="0 0 0 0 0.708333 0 0 0 0 0.708333 0 0 0 0 0.708333 0 0 0 0.1 0"/>
<feBlend mode="normal" in2="BackgroundImageFix" result="effect1_dropShadow"/>
<feBlend mode="normal" in="SourceGraphic" in2="effect1_dropShadow" result="shape"/>
</filter>
<clipPath id="clip0">
<rect width="804.739" height="610.284" fill="white"/>
</clipPath>
</defs>
</svg>
