<svg width="796" height="712" viewBox="0 0 796 712" fill="none" xmlns="http://www.w3.org/2000/svg">
<g clip-path="url(#clip0)">
<path d="M97.079 554.447L88.1888 519.382C72.425 512.701 56.297 506.915 39.8816 502.051L38.759 518.347L34.2072 500.393C13.8494 494.58 0 492.02 0 492.02C0 492.02 18.7074 563.158 57.9448 617.544L103.665 625.575L68.1462 630.696C73.0839 636.636 78.3904 642.26 84.0342 647.534C141.113 700.515 204.689 724.824 226.034 701.828C247.379 678.832 218.411 617.24 161.332 564.258C143.637 547.833 121.408 534.652 99.157 524.279L97.079 554.447Z" fill="#57B894"/>
<path d="M181.632 516.367L192.146 481.755C182.105 467.887 171.29 454.598 159.752 441.948L150.367 455.318L155.751 437.597C141.329 422.097 130.796 412.747 130.796 412.747C130.796 412.747 110.039 483.314 115.516 550.153L150.503 580.661L117.45 566.685C118.607 574.322 120.243 581.879 122.348 589.311C143.824 664.17 185.683 717.842 215.842 709.189C246.001 700.537 253.04 632.838 231.564 557.978C224.906 534.771 212.69 511.998 199.005 491.616L181.632 516.367Z" fill="#57B894"/>
<path d="M682.18 657.941L688.796 650.797C687.995 646.258 686.938 641.769 685.632 637.349L681.788 639.483L685.175 635.825C683.505 630.376 682.054 626.874 682.054 626.874C682.054 626.874 668.731 641.521 662.199 658.349L667.084 669.849L660.724 662.579C660.106 664.565 659.613 666.587 659.249 668.634C655.648 689.285 659.474 707.202 667.793 708.653C676.113 710.104 685.777 694.539 689.378 673.888C690.368 667.29 690.341 660.58 689.297 653.991L682.18 657.941Z" fill="#E6E6E6"/>
<path d="M780.05 672.071L789.407 669.375C791.067 665.076 792.483 660.686 793.649 656.228L789.255 656.068L794.046 654.687C795.433 649.159 796.001 645.411 796.001 645.411C796.001 645.411 777.025 651.063 762.735 662.092L760.972 674.462L759.285 664.951C757.73 666.331 756.263 667.807 754.894 669.372C741.136 685.189 735.149 702.504 741.522 708.046C747.894 713.589 764.212 705.26 777.97 689.443C782.227 684.307 785.672 678.548 788.185 672.368L780.05 672.071Z" fill="#E6E6E6"/>
<path d="M518.497 48.2916V660.455C518.494 673.262 513.406 685.544 504.35 694.6C495.294 703.655 483.012 708.744 470.205 708.747H232.312C219.502 708.748 207.215 703.662 198.155 694.606C189.096 685.549 184.004 673.265 184 660.455V48.2916C184.004 35.4815 189.096 23.1975 198.156 14.1413C207.215 5.08507 219.502 -0.00161515 232.312 3.84705e-07H261.17C259.753 3.48471 259.214 7.26413 259.599 11.0061C259.985 14.748 261.284 18.3379 263.382 21.4602C265.48 24.5825 268.313 27.1417 271.632 28.9127C274.951 30.6837 278.654 31.6124 282.416 31.6171H418.047C421.809 31.6125 425.512 30.6838 428.831 28.9128C432.15 27.1418 434.983 24.5826 437.081 21.4603C439.179 18.338 440.478 14.7481 440.864 11.0061C441.249 7.26414 440.71 3.48472 439.293 1.56435e-05H470.205C483.012 0.00260586 495.294 5.09128 504.35 14.1471C513.406 23.203 518.494 35.4846 518.497 48.2916V48.2916Z" fill="#3F3D56"/>
<path d="M458.139 409.904H244.574V411.904H458.139V409.904Z" fill="white"/>
<path d="M251.318 397.416C255.043 397.416 258.062 394.396 258.062 390.671C258.062 386.947 255.043 383.927 251.318 383.927C247.594 383.927 244.574 386.947 244.574 390.671C244.574 394.396 247.594 397.416 251.318 397.416Z" fill="#6C63FF"/>
<path d="M458.139 477.346H244.574V479.346H458.139V477.346Z" fill="white"/>
<path d="M251.318 464.857C255.043 464.857 258.062 461.837 258.062 458.113C258.062 454.388 255.043 451.369 251.318 451.369C247.594 451.369 244.574 454.388 244.574 458.113C244.574 461.837 247.594 464.857 251.318 464.857Z" fill="#6C63FF"/>
<path d="M417.046 328.164H277.799C276.473 328.163 275.202 327.635 274.265 326.698C273.328 325.761 272.8 324.49 272.799 323.164V183.917C272.8 182.591 273.328 181.321 274.265 180.383C275.202 179.446 276.473 178.919 277.799 178.917H417.046C418.372 178.919 419.642 179.446 420.58 180.383C421.517 181.321 422.044 182.591 422.046 183.917V323.164C422.044 324.49 421.517 325.761 420.58 326.698C419.642 327.635 418.372 328.163 417.046 328.164V328.164ZM277.799 180.917C277.003 180.918 276.241 181.234 275.678 181.797C275.116 182.359 274.8 183.122 274.799 183.917V323.164C274.8 323.959 275.116 324.722 275.678 325.284C276.241 325.847 277.003 326.163 277.799 326.164H417.046C417.841 326.163 418.604 325.847 419.166 325.284C419.729 324.722 420.045 323.959 420.046 323.164V183.917C420.045 183.122 419.729 182.359 419.166 181.797C418.604 181.234 417.841 180.918 417.046 180.917H277.799Z" fill="white"/>
<path d="M454.14 522.182H386.83C384.621 522.182 382.83 523.973 382.83 526.182V549.655C382.83 551.864 384.621 553.655 386.83 553.655H454.14C456.349 553.655 458.14 551.864 458.14 549.655V526.182C458.14 523.973 456.349 522.182 454.14 522.182Z" fill="#6C63FF"/>
<path d="M796 707.768H0.794922V709.768H796V707.768Z" fill="#3F3D56"/>
<path d="M644.52 325.082C644.52 325.082 641.752 342.615 644.52 345.383C647.289 348.151 626.987 371.221 626.987 371.221L610.377 348.151C610.377 348.151 617.759 336.155 614.991 326.004L644.52 325.082Z" fill="#FFB8B8"/>
<path d="M583.62 457.039L571.619 585.306L576.229 684.967L598.376 678.508L599.303 588.998L625.144 511.485L640.828 595.459L638.979 680.355L666.663 681.279L668.512 587.155L671.755 455.695L583.62 457.039Z" fill="#2F2E41"/>
<path d="M639.907 677.586V697.888C639.907 697.888 635.293 712.652 650.058 711.73C664.822 710.807 663.9 704.347 663.9 704.347L658.363 679.432L639.907 677.586Z" fill="#2F2E41"/>
<path d="M597.459 677.586V697.888C597.459 697.888 602.073 712.652 587.308 711.73C572.544 710.807 573.466 704.347 573.466 704.347L579.003 679.432L597.459 677.586Z" fill="#2F2E41"/>
<path d="M628.833 335.232C640.555 335.232 650.058 325.73 650.058 314.008C650.058 302.287 640.555 292.784 628.833 292.784C617.112 292.784 607.609 302.287 607.609 314.008C607.609 325.73 617.112 335.232 628.833 335.232Z" fill="#FFB8B8"/>
<path d="M627.911 361.07L629.757 351.842H634.371L643.293 339.008L650.981 346.306L652.827 389.677H602.996L607.61 343.537L614.329 339.008C614.329 339.008 613.147 354.611 626.066 354.611L627.911 361.07Z" fill="#575A89"/>
<path d="M608.532 350.919C608.532 350.919 616.173 360.594 627.578 359.909C638.984 359.224 650.057 349.997 650.057 349.997L665.745 469.959C665.745 469.959 648.211 471.805 642.675 462.577L600.227 461.654L601.149 349.997L608.532 350.919Z" fill="#D0CDE1"/>
<path d="M614.762 337.417L574.389 357.379L584.539 414.592C584.539 414.592 588.231 435.816 584.539 444.121C580.848 452.426 577.157 507.794 577.157 507.794C577.157 507.794 618.683 512.408 613.146 446.89C607.609 381.372 614.762 337.417 614.762 337.417Z" fill="#2F2E41"/>
<path d="M590.076 475.496L595.613 481.033C595.613 481.033 612.223 509.639 619.605 499.488C626.988 489.338 606.686 471.805 606.686 471.805L597.459 464.422L590.076 475.496Z" fill="#FFB8B8"/>
<path d="M643.314 337.417L683.279 357.379L669.437 425.666C669.437 425.666 670.36 447.812 674.974 459.809C679.588 471.805 677.742 506.871 677.742 506.871C677.742 506.871 672.205 528.095 660.209 475.496C648.213 422.897 643.314 337.417 643.314 337.417Z" fill="#2F2E41"/>
<path d="M674.05 442.276H665.745C665.745 442.276 638.061 438.584 639.907 449.658C641.752 460.731 667.59 457.963 667.59 457.963L677.741 457.04L674.05 442.276Z" fill="#FFB8B8"/>
<path d="M579.925 354.611L573.465 357.379C573.465 357.379 567.006 371.221 566.083 375.835C565.16 380.449 554.087 435.816 556.855 442.276C559.623 448.735 587.307 482.878 587.307 482.878L602.994 466.268L579.925 434.893L586.384 395.214L579.925 354.611Z" fill="#2F2E41"/>
<path d="M669.436 355.534L681.646 356.564L684.201 357.379C684.201 357.379 710.039 427.511 704.502 438.585C698.966 449.658 674.973 469.959 674.973 469.959L668.514 441.353L680.51 430.279L668.514 393.368L669.436 355.534Z" fill="#2F2E41"/>
<path d="M646.789 297.643C646.789 297.643 652.342 287.224 640.126 286.276C640.126 286.276 629.021 279.646 620.137 287.224C620.137 287.224 612.364 285.329 610.143 291.012C610.143 291.012 609.032 288.171 612.364 286.276C612.364 286.276 604.59 284.382 604.59 293.854C604.59 293.854 601.259 303.326 604.59 311.851C607.922 320.375 609.032 321.323 609.032 321.323C609.032 321.323 603.557 303.45 616.883 302.502C630.21 301.555 645.123 293.38 646.234 303.799C647.344 314.219 649.565 317.06 649.565 317.06C649.565 317.06 659.56 301.905 646.789 297.643Z" fill="#2F2E41"/>
<mask id="mask0" mask-type="alpha" maskUnits="userSpaceOnUse" x="287" y="198" width="111" height="112">
<path d="M398 198L287 250.219L316.099 263.001L326.458 306.096L345.532 285.642L376.563 309.362L398 198ZM327.969 268.525L326.849 279.761L322.548 261.864L398 198L327.969 268.525Z" fill="black"/>
</mask>
<g mask="url(#mask0)">
<g filter="url(#filter0_d)">
<rect x="227.797" y="145.583" width="233.84" height="235.875" rx="30" fill="white"/>
</g>
</g>
</g>
<defs>
<filter id="filter0_d" x="212.797" y="130.583" width="263.84" height="265.875" filterUnits="userSpaceOnUse" color-interpolation-filters="sRGB">
<feFlood flood-opacity="0" result="BackgroundImageFix"/>
<feColorMatrix in="SourceAlpha" type="matrix" values="0 0 0 0 0 0 0 0 0 0 0 0 0 0 0 0 0 0 127 0"/>
<feOffset/>
<feGaussianBlur stdDeviation="7.5"/>
<feColorMatrix type="matrix" values="0 0 0 0 0.708333 0 0 0 0 0.708333 0 0 0 0 0.708333 0 0 0 0.1 0"/>
<feBlend mode="normal" in2="BackgroundImageFix" result="effect1_dropShadow"/>
<feBlend mode="normal" in="SourceGraphic" in2="effect1_dropShadow" result="shape"/>
</filter>
<clipPath id="clip0">
<rect width="796" height="711.771" fill="white"/>
</clipPath>
</defs>
</svg>
