<svg width="889" height="719" viewBox="0 0 889 719" fill="none" xmlns="http://www.w3.org/2000/svg">
<g clip-path="url(#clip0)">
<path d="M354.028 85.0012L359.361 63.9669C368.817 59.9594 378.492 56.4884 388.339 53.5705L389.012 63.346L391.743 52.5764C403.955 49.0893 412.263 47.5532 412.263 47.5532C412.263 47.5532 401.041 90.2269 377.504 122.851L350.078 127.669L371.384 130.741C368.422 134.304 365.239 137.678 361.853 140.841C327.613 172.623 289.476 187.205 276.672 173.41C263.868 159.616 281.245 122.669 315.485 90.8866C326.1 81.0339 339.434 73.1271 352.782 66.9043L354.028 85.0012Z" fill="#E6E6E6"/>
<path d="M303.307 62.1587L297 41.3958C303.023 33.0773 309.511 25.1051 316.432 17.5173L322.061 25.5374L318.832 14.9068C327.484 5.60924 333.801 0 333.801 0C333.801 0 346.253 42.3312 342.968 82.4257L321.98 100.726L341.807 92.3427C341.114 96.9241 340.132 101.457 338.869 105.915C325.986 150.821 300.877 183.017 282.785 177.826C264.694 172.636 260.472 132.026 273.354 87.12C277.348 73.1988 284.676 59.5377 292.886 47.3113L303.307 62.1587Z" fill="#E6E6E6"/>
<path d="M717.028 609.001L722.361 587.967C731.817 583.959 741.492 580.488 751.339 577.571L752.012 587.346L754.743 576.576C766.955 573.089 775.263 571.553 775.263 571.553C775.263 571.553 764.041 614.227 740.504 646.851L713.077 651.669L734.384 654.741C731.422 658.304 728.239 661.678 724.853 664.841C690.613 696.623 652.476 711.205 639.672 697.41C626.868 683.616 644.245 646.669 678.485 614.887C689.1 605.034 702.434 597.127 715.782 590.904L717.028 609.001Z" fill="#E6E6E6"/>
<path d="M666.307 586.159L660 565.396C666.023 557.077 672.511 549.105 679.432 541.517L685.061 549.537L681.832 538.907C690.484 529.609 696.801 524 696.801 524C696.801 524 709.253 566.331 705.968 606.426L684.98 624.726L704.807 616.343C704.114 620.924 703.132 625.457 701.869 629.915C688.987 674.821 663.877 707.017 645.785 701.826C627.694 696.636 623.472 656.026 636.354 611.12C640.348 597.199 647.676 583.538 655.886 571.311L666.307 586.159Z" fill="#E6E6E6"/>
<path d="M888.049 700.396H0.0488281V702.637H888.049V700.396Z" fill="#3F3D56"/>
<path d="M529 242.076L536.584 317.076H599L596 203.076C596 178.539 579.037 157.076 554.5 157.076C529.963 157.076 514 177.539 514 202.076L510 317.076H520.176L529 242.076Z" fill="#2F2E41"/>
<path d="M506.499 313.576L500.499 365.576L484.499 440.576C484.499 440.576 472.499 475.576 484.499 475.576C496.499 475.576 496.499 440.576 496.499 440.576L512.499 396.576L523.499 315.576L506.499 313.576Z" fill="#FFB8B8"/>
<path d="M504.5 402.576C504.5 402.576 498.5 432.576 506.5 476.576C514.5 520.576 516.5 539.576 516.5 539.576C516.5 539.576 510.5 546.576 514.5 550.576C518.5 554.576 514.5 562.576 514.5 562.576L521.5 630.576L552.5 625.576L550.5 563.576C550.5 563.576 554.5 555.576 552.5 553.576C550.5 551.576 554.5 539.576 554.5 539.576L559.5 444.576L590.5 548.576C590.5 548.576 587.5 552.576 590.5 555.576C593.5 558.576 599.5 573.576 599.5 573.576L619.5 643.576L651.5 637.576L633.5 557.576C633.5 557.576 635.5 552.576 632.5 549.576C631.625 548.659 630.986 547.542 630.637 546.323C630.289 545.104 630.242 543.818 630.5 542.576C630.5 542.576 633.5 539.576 629.5 535.576C625.5 531.576 623.5 515.576 623.5 515.576C623.5 515.576 620.5 408.576 610.5 402.576C600.5 396.576 504.5 402.576 504.5 402.576Z" fill="#2F2E41"/>
<path d="M525.501 626.576L530.501 669.576L528.501 688.576C528.501 688.576 505.501 720.576 533.501 718.576C561.501 716.576 552.501 704.576 552.501 704.576L561.024 699.152C561.763 698.684 562.345 698.006 562.698 697.206C563.05 696.405 563.156 695.518 563.004 694.657C561.993 688.978 559.534 676.401 556.501 669.576C552.501 660.576 550.501 623.576 550.501 623.576L525.501 626.576Z" fill="#2F2E41"/>
<path d="M645.9 624.034L651.774 666.924L658.446 684.826C658.446 684.826 688.694 710.084 661.079 715.125C633.464 720.166 639.19 706.302 639.19 706.302L629.584 703.173C628.752 702.903 628.019 702.392 627.478 701.705C626.937 701.018 626.613 700.185 626.547 699.313C626.11 693.561 625.357 680.769 626.594 673.403C628.225 663.69 620.941 627.359 620.941 627.359L645.9 624.034Z" fill="#2F2E41"/>
<path d="M554.5 226.576C569.964 226.576 582.5 214.04 582.5 198.576C582.5 183.112 569.964 170.576 554.5 170.576C539.036 170.576 526.5 183.112 526.5 198.576C526.5 214.04 539.036 226.576 554.5 226.576Z" fill="#FFB8B8"/>
<path d="M540.5 218.577C540.5 218.577 548.5 245.577 540.5 253.577C532.5 261.577 530.5 264.577 530.5 264.577L553.5 295.577L593.5 246.577C593.5 246.577 565.5 238.577 572.5 216.577L540.5 218.577Z" fill="#FFB8B8"/>
<path d="M553.499 282.577L589.176 244.957C589.176 244.957 609.499 242.577 615.499 248.577L609.499 369.577C609.499 369.577 613.499 372.577 611.499 379.577C610.338 384.171 610.338 388.982 611.499 393.577C611.499 393.577 617.499 400.577 614.499 403.577C611.499 406.577 503.499 404.577 503.499 404.577C503.499 404.577 499.499 397.577 505.499 393.577C511.499 389.577 508.499 378.577 508.499 378.577C508.499 378.577 506.499 375.577 511.499 370.577C516.499 365.577 520.499 324.577 520.499 324.577L507.499 274.577C507.499 274.577 520.586 259.806 535.543 258.691L553.499 282.577Z" fill="#E6E6E6"/>
<path d="M602.5 248.577H615.5C615.5 248.577 618.5 248.577 621.5 258.577C624.5 268.577 628.5 293.577 628.5 293.577L600.5 296.577L602.5 248.577Z" fill="#E6E6E6"/>
<path d="M626.5 289.576L628.5 345.576L630.5 429.576C630.5 429.576 643.5 464.576 627.5 465.576C611.5 466.576 615.5 427.576 615.5 427.576L602.5 292.576L626.5 289.576Z" fill="#FFB8B8"/>
<path d="M511.5 275.576L507.5 274.576C507.5 274.576 498.5 292.576 497.5 308.576L496.5 314.576L527.5 318.576L511.5 275.576Z" fill="#E6E6E6"/>
<path d="M531 194.077C549.084 184.327 556.513 184.74 579 194.077L585 179.458C584.997 176.706 583.902 174.067 581.956 172.121C580.01 170.175 577.371 169.08 574.618 169.077H534.382C531.629 169.08 528.99 170.175 527.044 172.121C525.098 174.067 524.003 176.706 524 179.458L531 194.077Z" fill="#2F2E41"/>
<path d="M41.375 146.786H258.924V105.411H0V364.335H41.375V146.786Z" fill="#3F3D56"/>
<path d="M293.625 397.702H76.0762V439.076H335V180.152H293.625V397.702Z" fill="#3F3D56"/>
<path d="M313.646 126.766H22.6895V417.722H313.646V126.766Z" fill="#57B894"/>
</g>
<path fill-rule="evenodd" clip-rule="evenodd" d="M135.947 322.892C128.303 322.683 120.9 319.836 114.741 314.737C108.583 309.637 103.967 302.531 101.518 294.382C106.773 295.636 112.203 295.636 117.458 294.382V294.382C112.487 293.223 107.783 290.921 103.641 287.619C99.4988 284.317 96.0085 280.087 93.3891 275.196C89.7533 268.574 87.8732 260.923 87.9697 253.141C92.8876 256.119 98.3314 257.834 103.909 258.161C95.8876 252.372 90.174 243.309 87.9697 232.879C85.7485 222.637 87.1788 211.825 91.9546 202.754C101.308 215.566 112.923 226.053 126.065 233.553C139.207 241.054 153.591 245.403 168.305 246.327C168.305 244.534 168.305 243.099 168.305 241.665C167.252 232.148 169.167 222.515 173.724 214.41C176.442 209.39 180.105 205.102 184.457 201.849C188.808 198.595 193.742 196.456 198.908 195.582C204.664 194.473 210.573 194.954 216.126 196.984C221.68 199.015 226.711 202.533 230.787 207.237C231.096 207.461 231.456 207.58 231.823 207.58C232.191 207.58 232.55 207.461 232.859 207.237C240.396 205.319 247.645 202.178 254.378 197.913V197.913C251.58 207.312 245.939 215.307 238.438 220.506C245.514 219.579 252.437 217.527 259 214.41V214.41L254.856 220.506C250.944 226.014 246.386 230.9 241.307 235.03C241.173 235.435 241.173 235.881 241.307 236.285C241.76 242.252 241.76 248.25 241.307 254.216C239.886 267.08 236.658 279.609 231.744 291.334C226.754 303.432 220.022 314.519 211.819 324.147C198.068 340.33 180.287 351.456 160.813 356.065C154.053 357.736 147.169 358.697 140.251 358.933C119.341 359.722 98.6966 353.479 80.9564 341.002H80C92.6124 342.726 105.407 340.749 117.139 335.265C123.931 332.239 130.273 328.067 135.947 322.892V322.892Z" fill="#6C63FF"/>
<defs>
<clipPath id="clip0">
<rect width="888.048" height="718.666" fill="white"/>
</clipPath>
</defs>
</svg>
