<svg width="888" height="595" viewBox="0 0 888 595" fill="none" xmlns="http://www.w3.org/2000/svg">
<g clip-path="url(#clip0)">
<path d="M583.112 582.148C570.91 579.433 556.06 568.14 559.239 552.618C560.816 544.919 566.867 539.936 573.142 536.713C581.822 532.256 591.706 530.577 601.232 530.152C612.22 529.663 623.195 530.897 634.1 532.202C644.866 533.491 655.633 534.644 666.447 535.349C687.754 536.731 709.128 536.757 730.439 535.426C751.335 534.133 772.129 531.527 792.698 527.625C802.906 525.684 813.054 523.407 823.14 520.794C832.627 518.498 841.965 515.622 851.101 512.184C863.093 507.44 882.593 498.211 881.003 481.117C880.16 472.054 873.682 464.815 867.147 459.772C859.246 453.674 850.103 449.662 841.149 445.766C799.497 427.643 757.764 409.736 716.072 391.722C706.342 387.518 696.547 383.427 687.103 378.5C678.262 373.888 669.462 368.529 662.347 361.121C656.132 354.65 650.579 345.963 650.775 336.253C650.937 328.2 655.385 321.366 660.833 316.258C674.321 303.613 693.401 298.487 710.645 295.801C732.069 292.465 753.803 292.482 775.241 289.26C792.551 286.659 811.046 281.637 825.124 269.869C830.522 265.357 835.284 259.549 837.285 252.364C839.079 245.371 838.187 237.96 834.784 231.592C830.97 224.088 824.887 218.11 818.491 213.214C810.928 207.551 802.611 202.973 793.78 199.613C774.767 192.148 754.773 188.261 735.297 182.533C725.746 179.723 716.098 176.643 707.229 171.817C699.715 167.729 691.53 162.218 687.349 154.023C678.724 137.115 699.301 127.038 710.96 123.221C718.949 120.73 727.103 118.807 735.363 117.466C737.121 117.155 736.375 114.263 734.625 114.573C725.937 115.963 717.369 118.024 709 120.738C701.969 123.145 694.714 126.308 689.191 131.75C684.553 136.322 681.668 142.817 682.904 149.674C684.367 157.786 690.726 164.037 696.698 168.565C704.595 174.553 713.6 178.463 722.729 181.65C732.344 185.007 742.163 187.623 751.979 190.189C771.593 195.317 792.087 199.887 809.793 210.798C822.179 218.431 839.006 232.743 834.885 250.482C833.057 258.357 827.503 264.514 821.509 269.042C814.266 274.515 805.968 278.253 797.554 281.043C758.317 294.052 715.134 284.749 676.908 302.419C663.911 308.427 648.124 319.365 647.997 336.576C647.931 345.517 652.281 353.717 657.659 360.198C664.1 367.961 672.441 373.702 680.927 378.499C689.948 383.407 699.223 387.831 708.713 391.754C719.169 396.279 729.628 400.798 740.089 405.311L803.573 432.739L835.115 446.367C844.741 450.526 854.615 454.516 863.368 460.622C870.535 465.621 879.002 473.823 878.271 484.007C877.69 492.095 871.169 497.931 865.21 501.834C857.493 506.887 848.825 510.155 840.201 512.871C830.253 516.003 820.142 518.602 810.011 520.938C789.146 525.735 767.986 529.147 746.671 531.152C725.287 533.179 703.794 533.839 682.326 533.128C671.474 532.769 660.638 532.053 649.82 530.983C638.668 529.876 627.564 528.171 616.384 527.415C606.271 526.731 596.061 526.889 586.102 529.088C577.786 530.924 569.001 534.197 562.689 540.582C560.453 542.825 558.714 545.513 557.586 548.472C556.457 551.431 555.964 554.594 556.138 557.756C556.66 564.143 559.371 570.154 563.811 574.775C568.822 579.99 575.293 583.569 582.374 585.041C584.117 585.429 584.863 582.538 583.112 582.148L583.112 582.148Z" fill="#E6E6E6"/>
<path d="M888 584.395H0V586.635H888V584.395Z" fill="#3F3D56"/>
<path d="M813.501 477.641L855.259 539.558L816.381 578.436L811.341 568.356L819.981 548.197C819.981 548.197 818.541 529.478 813.501 524.438C808.462 519.399 786.143 489.16 786.143 489.16L813.501 477.641Z" fill="#FFB8B8"/>
<path d="M760.224 277.49C760.224 277.49 768.142 290.022 751.583 344.02C751.583 344.02 828.823 474.38 816.583 483.02C804.344 491.659 771.223 510.779 762.583 505.02C753.944 499.26 691.107 304.129 691.107 304.129L760.224 277.49Z" fill="#2F2E41"/>
<path d="M847.7 528.398L860.3 540.997C866.78 547.477 871.099 556.837 858.86 564.756C846.621 572.676 804.142 602.195 789.743 592.835C775.344 583.475 807.022 574.836 807.022 574.836C807.022 574.836 812.261 555.414 815.041 559.725C817.822 564.036 817.822 572.676 817.822 572.676L847.7 528.398Z" fill="#2F2E41"/>
<path d="M695.427 511.479C695.427 511.479 672.388 553.957 672.388 558.997C672.388 564.036 673.828 578.436 673.828 578.436L629.91 589.235L614.791 582.035L619.831 569.076C619.831 569.076 647.189 559.717 652.949 541.717C658.709 523.718 665.189 504.999 665.189 504.999L695.427 511.479Z" fill="#FFB8B8"/>
<path d="M722.065 88.8581C738.765 88.8581 752.303 75.3198 752.303 58.6195C752.303 41.9191 738.765 28.3809 722.065 28.3809C705.364 28.3809 691.826 41.9191 691.826 58.6195C691.826 75.3198 705.364 88.8581 722.065 88.8581Z" fill="#FFB8B8"/>
<path d="M714.146 84.5385L728.583 126.019L760.224 111.897C760.224 111.897 738.625 78.7788 738.625 74.459L714.146 84.5385Z" fill="#FFB8B8"/>
<path d="M709.826 232.132H747.984C747.984 232.132 775.342 273.89 759.503 317.808C757.078 324.533 754.67 333.954 752.267 345.092C746.74 370.707 741.237 405.404 735.597 437.288C727.676 482.073 719.486 521.307 710.582 522.019C692.583 523.459 657.582 523.219 657.582 516.019C657.582 508.82 681.027 300.528 681.027 300.528L686.067 291.889L687.019 254.256C687.169 248.317 689.642 242.674 693.906 238.538C698.17 234.402 703.885 232.102 709.825 232.132L709.826 232.132Z" fill="#2F2E41"/>
<path d="M672.027 558.637C672.027 558.637 680.307 572.676 678.147 582.756C675.987 592.835 672.387 591.395 656.548 592.835C640.708 594.275 586.711 594.275 586.711 584.196C586.711 574.116 628.834 561.026 629.011 565.051C629.189 569.076 630.629 576.996 626.309 578.436C621.989 579.876 625.949 578.796 625.949 578.796L672.027 558.637Z" fill="#2F2E41"/>
<path d="M696.046 318.237C696.046 318.237 687.387 368.74 668.272 351.339C649.157 333.938 680.998 309.745 680.998 309.745L696.046 318.237Z" fill="#FFB8B8"/>
<path d="M755.844 254.638C756.848 255.091 757.956 255.262 759.05 255.132C760.143 255.003 761.181 254.578 762.052 253.903C763.315 252.911 764.157 251.478 764.407 249.891C767.427 232.481 771.104 184.214 773.222 159.807C775.879 129.181 762.605 105.461 762.493 105.316L754.671 94.5599C753.858 93.436 752.689 92.6203 751.354 92.2455C750.019 91.8708 748.596 91.959 747.317 92.496C747.317 92.496 722.895 117.834 722.805 118.813C722.422 123.014 719.515 132.323 704.365 147.474C687.788 164.05 687.696 178.518 688.063 182.558C688.087 182.824 688.1 183.089 688.1 183.354C688.069 185.166 688.315 186.973 688.83 188.711C695.774 210.6 690.336 236.808 681.604 264.163C681.274 265.4 681.335 266.708 681.781 267.907C682.226 269.107 683.034 270.138 684.091 270.859C686.641 272.594 683.583 270.019 684.493 271.134C690.511 278.508 699.171 268.23 709.077 257.017C712.527 253.11 716.439 248.682 721.048 244.073C727.386 237.735 739.496 252.198 745.126 252.198C748.831 252.242 752.484 253.074 755.844 254.638Z" fill="#57B894"/>
<path d="M763.114 118.823C763.114 118.823 777.39 133.798 766.582 150.019C755.774 166.241 755.578 179.053 755.578 179.053C755.578 179.053 740.314 296.925 713.03 288.141L696.51 321.807L674.484 311.03L691.115 281.561C691.115 281.561 680.568 279.742 684.46 272.845C687.194 268 704.952 214.131 715.28 182.494C719.657 169.087 722.7 159.672 722.7 159.672C722.7 159.672 737.003 112.355 763.114 118.823Z" fill="#57B894"/>
<path opacity="0.2" d="M759.863 179.214L744.695 236.253L756.231 174.753L759.863 179.214Z" fill="black"/>
<path d="M689.074 45.2219C689.074 45.2219 683.99 5.65835 725.47 18.6321C725.47 18.6321 755.095 13.1964 764.81 50.2526L774.647 89.0967L769.853 86.4873L767.618 91.3729L759.849 93.3403L756.525 86.7419L754.916 94.7549L691.286 101.098C691.286 101.098 719.784 84.2443 720.236 54.0377L714.808 59.7741L689.074 45.2219Z" fill="#2F2E41"/>
<path d="M94.6193 3.32422C93.6572 3.32782 92.7358 3.71289 92.0573 4.39496C91.3788 5.07703 90.9986 6.00039 91 6.96246V301.686C90.9985 302.648 91.3787 303.571 92.0572 304.254C92.7358 304.936 93.6572 305.321 94.6193 305.324H515.381C516.343 305.321 517.265 304.936 517.943 304.254C518.621 303.571 519.002 302.648 519 301.686V6.96246C519.002 6.00044 518.621 5.07708 517.943 4.395C517.265 3.71292 516.343 3.32784 515.381 3.32422H94.6193Z" fill="#3F3D56"/>
<path d="M93.105 176.535C105.94 176.498 118.058 181.059 128.626 188.152C139.719 195.598 149.094 205.462 157.33 215.909C166.431 227.453 174.229 239.944 182.6 252.01C190.331 263.154 198.615 273.987 208.579 283.246C218.005 292.005 228.922 299.37 241.235 303.365C242.735 303.851 244.252 304.281 245.781 304.665C247.505 305.098 248.24 302.436 246.515 302.003C233.871 298.83 222.566 291.957 212.847 283.391C202.706 274.452 194.275 263.845 186.524 252.821C178.084 240.818 170.319 228.338 161.395 216.678C153.139 205.89 143.854 195.746 132.826 187.73C122.592 180.291 110.738 174.993 98.0299 173.959C96.3912 173.825 94.7489 173.769 93.105 173.774C92.7471 173.786 92.4081 173.937 92.1593 174.195C91.9105 174.452 91.7715 174.796 91.7715 175.154C91.7715 175.512 91.9105 175.856 92.1593 176.114C92.4081 176.371 92.7471 176.522 93.105 176.535L93.105 176.535Z" fill="#6C63FF"/>
<path d="M94.5402 304.006C117.118 281.168 147.984 270.372 178.635 263.369C210.694 256.045 243.768 252.113 274.227 239.046C288.772 232.974 302.123 224.368 313.659 213.628C324.429 203.339 333.364 191.286 340.077 177.99C353.778 151.035 358.04 120.263 352.179 90.5988C345.979 60.4412 330.606 32.9381 308.167 11.8571C305.432 9.28678 302.601 6.82596 299.674 4.47465C298.302 3.37023 296.337 5.31193 297.721 6.42701C321.571 25.6576 338.841 51.8368 347.134 81.3298C355.236 110.424 353.139 141.414 341.191 169.151C335.394 182.625 327.371 195.028 317.459 205.84C306.942 217.117 294.437 226.359 280.569 233.101C251.023 247.688 217.952 252.204 186.051 258.921C155.973 265.255 125.292 274.29 101.176 294.191C98.1826 296.665 95.3162 299.289 92.5878 302.053C91.3373 303.318 93.2885 305.272 94.5402 304.006V304.006Z" fill="#6C63FF"/>
<path d="M92.847 131.118C127.498 121.746 164.166 123.001 198.095 134.722C207.951 138.103 218.061 142.032 226.307 148.567C233.401 154.19 239.629 162.701 237.857 172.258C236.224 181.067 228.121 188.026 219.399 189.299C210.405 190.612 202.209 185.139 198.083 177.382C195.977 173.535 195.015 169.166 195.311 164.791C195.606 160.415 197.147 156.215 199.751 152.686C204.965 145.663 213.634 141.653 222.153 140.541C231.892 139.269 241.47 142.14 249.893 146.94C268.931 157.788 281.088 176.7 297.076 191.116C304.738 198.244 313.735 203.785 323.549 207.419C333.04 210.7 343.052 212.214 353.089 211.887C374.127 211.351 394.3 203.751 411.489 191.829C428.73 179.871 442.971 164.169 455.439 147.413C462.106 138.452 467.901 128.825 474.878 120.101C481.745 111.514 490.243 103.88 501.109 101.005C506.055 99.6376 511.275 99.6087 516.236 100.922C516.584 101.005 516.951 100.95 517.26 100.767C517.568 100.585 517.793 100.29 517.889 99.9451C517.984 99.5999 517.941 99.2311 517.77 98.9167C517.598 98.6022 517.312 98.3666 516.97 98.2595C506.405 95.3786 495.299 98.7507 486.54 104.899C477.171 111.476 470.457 121.009 464.088 130.345C451.363 148.997 437.659 167.073 420.266 181.665C402.9 196.233 382 206.672 359.217 208.764C348.318 209.863 337.31 208.79 326.829 205.608C315.872 202.166 306.371 195.949 297.973 188.2C281.472 172.975 268.637 152.99 247.984 142.798C239.28 138.503 229.753 136.442 220.107 138.077C211.613 139.517 203.259 143.706 197.904 150.586C195.192 154.045 193.422 158.148 192.768 162.495C192.113 166.841 192.597 171.284 194.171 175.388C197.221 183.398 204.029 190.316 212.673 191.893C221.399 193.485 230.515 189.461 235.964 182.612C238.692 179.176 240.348 175.013 240.727 170.642C241.106 166.271 240.192 161.885 238.096 158.03C233.615 149.366 224.871 143.376 216.354 139.149C205.654 134.013 194.423 130.066 182.863 127.378C159.139 121.593 134.496 120.623 110.391 124.525C104.237 125.529 98.1364 126.841 92.113 128.455C91.7713 128.562 91.4844 128.798 91.313 129.113C91.1416 129.427 91.099 129.796 91.1942 130.141C91.2894 130.486 91.515 130.781 91.8233 130.963C92.1316 131.146 92.4986 131.201 92.847 131.118H92.847Z" fill="#6C63FF"/>
<path d="M380.914 305.218C390.682 292.1 400.671 278.186 404.887 262.137C406.987 254.476 407.295 246.435 405.787 238.636C404.329 231.836 401.488 225.408 397.44 219.754C389.137 207.961 376.897 199.197 363.872 193.28C347.741 185.953 330.346 182.196 313.511 176.913C297.992 172.043 282.081 165.689 270.489 153.852C259.536 142.669 253.33 125.836 259.439 110.695C264.982 96.9573 278.49 87.847 291.975 83.0375C308.508 77.1406 326.215 76.0791 343.063 71.4054C357.148 67.4982 371.562 60.836 380.283 48.6033C387.673 38.2367 390.046 23.2873 384.138 11.7007C382.698 8.89196 380.759 6.36827 378.416 4.2526C377.102 3.0618 375.143 5.00866 376.463 6.20496C386.426 15.2331 386.544 30.6795 380.931 42.1136C374.341 55.539 360.112 63.1866 346.416 67.5304C330.114 72.7006 312.864 73.8041 296.483 78.6686C282.483 82.8262 268.788 90.2806 260.549 102.739C256.548 108.706 254.355 115.7 254.23 122.883C254.273 130.569 256.324 138.111 260.18 144.76C267.968 158.588 281.85 167.534 296.137 173.57C326.174 186.26 361.807 188.198 386.554 211.466C397.181 221.458 404.397 234.729 403.98 249.595C403.521 265.992 394.756 280.911 385.639 294.013C383.332 297.328 380.942 300.585 378.53 303.825C377.468 305.25 379.863 306.629 380.914 305.218V305.218Z" fill="#6C63FF"/>
<path d="M155.413 7.01398C159.213 9.78361 162.289 13.4295 164.379 17.6419C166.468 21.8544 167.51 26.509 167.417 31.2104C167.267 35.9704 165.942 40.6195 163.561 44.7435C161.179 48.8675 157.814 52.3383 153.766 54.8468C146.098 59.3728 135.321 59.9423 129.216 52.5464C126.69 49.5464 125.431 45.6811 125.705 41.769C125.922 39.881 126.591 38.0731 127.655 36.4983C128.719 34.9235 130.146 33.6281 131.817 32.7218C139.562 28.3024 148.845 30.9043 156.003 35.1388C160.434 37.7599 164.488 40.9485 168.724 43.8603C172.771 46.6662 177.093 49.0535 181.623 50.9855C199.657 58.6032 220.818 58.6937 238.596 50.2733C246.651 46.4167 253.865 41.0074 259.824 34.3558C265.783 27.7043 270.37 19.9414 273.322 11.5127C274.034 9.42881 274.634 7.30833 275.12 5.16034C275.513 3.43025 272.852 2.69159 272.457 4.42635C268.309 22.6823 255.634 38.4686 239.026 46.9897C220.924 56.2777 198.573 56.018 180.276 47.3811C175.586 45.0705 171.115 42.3387 166.918 39.2194C162.602 36.1262 158.298 32.932 153.473 30.6615C145.889 27.0924 135.962 26.0879 128.85 31.3667C127.181 32.5802 125.792 34.136 124.773 35.9299C123.755 37.7239 123.131 39.7146 122.944 41.769C122.675 45.9753 123.93 50.1378 126.478 53.4952C132.394 61.4751 143.043 62.6052 151.778 58.9209C160.965 55.0459 167.584 46.2722 169.548 36.5763C170.725 30.5899 170.149 24.391 167.888 18.7241C165.628 13.0572 161.78 8.16321 156.807 4.62988C155.362 3.59088 153.982 5.98479 155.413 7.01398H155.413Z" fill="#6C63FF"/>
<path d="M448.224 304.687C451.152 291.38 456.993 278.887 465.328 268.107C473.629 257.296 484.121 248.362 496.117 241.89C502.853 238.266 510.028 235.524 517.464 233.73C519.191 233.314 518.46 230.651 516.73 231.068C503.155 234.419 490.488 240.731 479.639 249.553C468.742 258.319 459.825 269.292 453.474 281.752C449.897 288.783 447.237 296.245 445.561 303.953C445.188 305.686 447.849 306.426 448.224 304.687H448.224Z" fill="#6C63FF"/>
<path d="M433.564 4.66165C427.677 4.72092 422.713 8.79558 420.302 13.9908C417.566 19.8866 418.314 26.3746 421.247 32.055C428.089 45.3068 443.028 50.003 453.785 59.1653C458.776 63.4162 463.126 68.8254 464.271 75.4444C465.387 81.8963 463.083 88.5455 459.308 93.7374C455.186 99.4064 448.97 103.304 442.495 105.762C435.835 108.294 428.801 109.704 421.68 109.935C414.801 110.13 407.528 108.928 401.831 104.824C399.466 103.134 397.478 100.971 395.993 98.4728C394.508 95.9744 393.558 93.1947 393.203 90.31C392.912 87.7014 393.355 85.0633 394.481 82.6926C395.608 80.3219 397.374 78.3128 399.58 76.8914C404.03 74.2603 409.309 73.4037 414.362 74.4926C426.952 76.9806 433.474 89.4735 436.258 100.926C439.803 115.509 438.395 131.012 443.847 145.182C448.496 157.173 456.959 167.303 467.931 174.011C480.508 181.661 494.049 184.137 508.321 180.4C511.955 179.429 515.489 178.115 518.874 176.474C520.476 175.707 519.077 173.326 517.481 174.09C503.294 180.881 488.779 181.097 474.502 174.406C462.67 168.793 453.189 159.199 447.714 147.304C441.254 133.244 442.538 117.458 439.463 102.607C436.988 90.6535 430.976 77.3293 418.695 72.8348C408.812 69.218 395.566 72.0254 391.452 82.6682C389.301 88.2315 390.546 94.5928 393.5 99.6152C396.833 105.117 402.096 109.18 408.263 111.009C415.19 113.211 422.664 113.026 429.768 111.906C436.918 110.907 443.831 108.636 450.18 105.2C456.262 101.898 461.209 96.8399 464.375 90.686C467.326 84.6709 468.275 77.6703 466.032 71.2603C461.075 57.0979 446.084 51.2502 434.893 43.0613C429.379 39.0266 424.203 33.7269 422.148 27.0487C421.186 24.1883 421.055 21.1135 421.77 18.1815C422.485 15.2495 424.017 12.5805 426.189 10.4844C428.176 8.57407 430.808 7.48109 433.564 7.42267C433.922 7.41026 434.261 7.25937 434.51 7.00183C434.758 6.74429 434.897 6.40021 434.897 6.04214C434.897 5.68408 434.758 5.34 434.51 5.08246C434.261 4.82491 433.922 4.67403 433.564 4.66162L433.564 4.66165Z" fill="#6C63FF"/>
<path d="M392.07 83.8406C403.761 83.8406 413.239 74.3633 413.239 62.6725C413.239 50.9817 403.761 41.5044 392.07 41.5044C380.38 41.5044 370.902 50.9817 370.902 62.6725C370.902 74.3633 380.38 83.8406 392.07 83.8406Z" fill="#6C63FF"/>
<path d="M133.451 99.4866C145.142 99.4866 154.619 90.0093 154.619 78.3185C154.619 66.6277 145.142 57.1504 133.451 57.1504C121.76 57.1504 112.283 66.6277 112.283 78.3185C112.283 90.0093 121.76 99.4866 133.451 99.4866Z" fill="#6C63FF"/>
<path opacity="0.2" d="M736.395 439.563L750.584 345.019L739.044 447.083L736.395 439.563Z" fill="black"/>
<path d="M759.582 35.0195C768.419 35.0195 775.582 27.8561 775.582 19.0195C775.582 10.183 768.419 3.01953 759.582 3.01953C750.745 3.01953 743.582 10.183 743.582 19.0195C743.582 27.8561 750.745 35.0195 759.582 35.0195Z" fill="#2F2E41"/>
<path d="M743.096 15.1025C743.359 11.043 745.16 7.23647 748.131 4.45807C751.102 1.67968 755.021 0.138418 759.089 0.148198C758.758 0.106278 758.431 0.0553252 758.094 0.0336652C755.996 -0.102624 753.892 0.175771 751.902 0.852925C749.912 1.53008 748.075 2.59272 746.496 3.98014C744.917 5.36756 743.627 7.05255 742.699 8.93883C741.771 10.8251 741.224 12.8757 741.09 14.9734C740.955 17.0712 741.235 19.1749 741.913 21.1645C742.592 23.154 743.655 24.9904 745.044 26.5686C746.432 28.1468 748.118 29.4359 750.005 30.3624C751.892 31.2888 753.943 31.8343 756.041 31.9677C756.378 31.9894 756.709 31.9807 757.042 31.9815C753.006 31.4703 749.317 29.4399 746.726 26.3039C744.135 23.1679 742.837 19.1621 743.096 15.1025V15.1025Z" fill="#2F2E41"/>
<path d="M719.582 68.0195C722.343 68.0195 724.582 64.8855 724.582 61.0195C724.582 57.1535 722.343 54.0195 719.582 54.0195C716.821 54.0195 714.582 57.1535 714.582 61.0195C714.582 64.8855 716.821 68.0195 719.582 68.0195Z" fill="#FFB8B8"/>
<path opacity="0.2" d="M709.582 192.019L687.406 265.497L714.582 184.633L709.582 192.019Z" fill="black"/>
<mask id="mask0" mask-type="alpha" maskUnits="userSpaceOnUse" x="199" y="97" width="195" height="122">
<path d="M385.709 195.822C379.91 188.123 373.085 181.553 366.628 174.576C360.802 168.287 360.435 164.639 365.118 157.38C370.229 149.458 375.725 141.84 380.883 133.954C385.697 126.583 390.618 119.233 393.151 110.409C394.758 104.795 393.337 102.315 388.135 101.332C387.239 101.16 386.313 101.151 385.4 101.151L354.539 101.111C350.738 101.048 348.637 102.882 347.292 106.611C345.477 111.651 343.606 116.687 341.444 121.55C336.539 132.577 331.061 143.236 323.38 152.262C321.687 154.252 319.814 156.768 316.984 155.731C313.443 154.302 312.4 147.845 312.458 145.662L312.428 106.238C311.742 100.606 310.613 98.0947 305.561 97L273.502 97.0067C269.223 97.0067 267.077 98.8364 264.792 101.799C263.474 103.51 263.076 104.62 265.785 105.188C271.106 106.305 274.104 110.116 274.899 116.021C276.175 125.455 276.086 134.928 275.351 144.4C275.135 147.166 274.705 149.925 273.714 152.508C272.164 156.567 269.661 157.393 266.373 154.896C263.395 152.635 261.304 149.445 259.257 146.241C251.569 134.217 245.434 121.251 240.432 107.625C238.987 103.689 236.494 101.303 232.726 101.238C223.467 101.075 214.205 101.048 204.946 101.247C199.375 101.363 197.714 104.357 199.983 109.946C210.067 134.774 221.293 158.91 235.945 180.898C243.468 192.182 252.106 202.144 263.264 209.204C275.91 217.206 289.523 219.614 303.861 218.873C310.575 218.524 312.591 216.592 312.902 209.186C313.112 204.119 313.631 199.081 315.89 194.528C318.106 190.06 321.463 189.209 325.332 191.988C327.268 193.38 328.899 195.151 330.439 197.019C334.218 201.594 337.862 206.308 341.784 210.73C346.703 216.27 352.53 219.543 359.858 218.875L388.222 218.882C392.792 218.551 395.162 212.349 392.538 206.704C390.695 202.749 388.277 199.229 385.709 195.822Z" fill="black"/>
</mask>
<g mask="url(#mask0)">
<g filter="url(#filter0_d)">
<rect x="-63.4102" y="-206.834" width="617.674" height="605.432" rx="30" fill="white"/>
</g>
</g>
</g>
<defs>
<filter id="filter0_d" x="-78.4102" y="-221.834" width="647.674" height="635.432" filterUnits="userSpaceOnUse" color-interpolation-filters="sRGB">
<feFlood flood-opacity="0" result="BackgroundImageFix"/>
<feColorMatrix in="SourceAlpha" type="matrix" values="0 0 0 0 0 0 0 0 0 0 0 0 0 0 0 0 0 0 127 0"/>
<feOffset/>
<feGaussianBlur stdDeviation="7.5"/>
<feColorMatrix type="matrix" values="0 0 0 0 0.708333 0 0 0 0 0.708333 0 0 0 0 0.708333 0 0 0 0.1 0"/>
<feBlend mode="normal" in2="BackgroundImageFix" result="effect1_dropShadow"/>
<feBlend mode="normal" in="SourceGraphic" in2="effect1_dropShadow" result="shape"/>
</filter>
<clipPath id="clip0">
<rect width="888" height="594.649" fill="white"/>
</clipPath>
</defs>
</svg>
