<svg width="712" height="670" viewBox="0 0 712 670" fill="none" xmlns="http://www.w3.org/2000/svg">
<g clip-path="url(#clip0)">
<path d="M516.326 380.018V565.013L547.27 615.443L549.625 619.279H671.722L674.189 380.018H516.326Z" fill="#E6E6E6"/>
<path opacity="0.1" d="M516.326 380.018V565.013L547.27 615.443L549.169 380.018H516.326Z" fill="black"/>
<path d="M221.566 375.084V560.08L190.622 610.51L188.267 614.345H66.1701L63.7031 375.084H221.566Z" fill="#E6E6E6"/>
<path opacity="0.1" d="M221.566 375.084V560.08L190.622 610.51L188.723 375.084H221.566Z" fill="black"/>
<path d="M711.188 371.385V382.484H47.6699V366.451L109.335 334.385H656.923L711.188 371.385Z" fill="#E6E6E6"/>
<path opacity="0.1" d="M711.188 371.385V382.484H47.6699V366.451L711.188 371.385Z" fill="black"/>
<path d="M142.634 426.883H113.034L100.701 418.25H156.2L142.634 426.883Z" fill="#3F3D56"/>
<path d="M142.634 462.649H113.034L100.701 454.016H156.2L142.634 462.649Z" fill="#3F3D56"/>
<path d="M142.634 513.215H113.034L100.701 504.581H156.2L142.634 513.215Z" fill="#3F3D56"/>
<path d="M142.634 563.78H113.034L100.701 555.147H156.2L142.634 563.78Z" fill="#3F3D56"/>
<path d="M595.257 431.816H624.857L637.19 423.183H581.691L595.257 431.816Z" fill="#3F3D56"/>
<path d="M595.257 467.582H624.857L637.19 458.949H581.691L595.257 467.582Z" fill="#3F3D56"/>
<path d="M595.257 518.148H624.857L637.19 509.515H581.691L595.257 518.148Z" fill="#3F3D56"/>
<path d="M595.257 568.713H624.857L637.19 560.08H581.691L595.257 568.713Z" fill="#3F3D56"/>
<path d="M615.414 120.456H366.229C364.991 120.456 363.765 120.7 362.622 121.173C361.479 121.647 360.44 122.341 359.565 123.216C358.689 124.091 357.995 125.13 357.522 126.273C357.048 127.417 356.805 128.642 356.805 129.88V297.738C356.805 298.975 357.048 300.201 357.522 301.344C357.995 302.488 358.689 303.527 359.565 304.402C360.44 305.277 361.479 305.971 362.622 306.445C363.765 306.918 364.991 307.162 366.229 307.162H460.821L457.278 329.788C457.278 329.788 437.025 340.547 451.265 340.864C465.505 341.18 532.593 340.864 532.593 340.864C532.593 340.864 545.567 340.864 524.998 329.471L521.664 307.162H615.414C616.652 307.162 617.877 306.918 619.021 306.445C620.164 305.971 621.203 305.277 622.078 304.402C622.953 303.527 623.647 302.488 624.121 301.344C624.594 300.201 624.838 298.975 624.838 297.738V129.88C624.838 128.642 624.594 127.417 624.121 126.273C623.647 125.13 622.953 124.091 622.078 123.216C621.203 122.341 620.164 121.647 619.021 121.173C617.877 120.7 616.652 120.456 615.414 120.456V120.456Z" fill="#3F3D56"/>
<path d="M615.82 130.424H365.824V270.295H615.82V130.424Z" fill="#F2F2F2"/>
<path d="M490.821 127.577C491.694 127.577 492.403 126.868 492.403 125.994C492.403 125.121 491.694 124.412 490.821 124.412C489.947 124.412 489.238 125.121 489.238 125.994C489.238 126.868 489.947 127.577 490.821 127.577Z" fill="#F2F2F2"/>
<path d="M490.821 300.358C494.142 300.358 496.834 297.666 496.834 294.346C496.834 291.025 494.142 288.333 490.821 288.333C487.5 288.333 484.809 291.025 484.809 294.346C484.809 297.666 487.5 300.358 490.821 300.358Z" fill="#F2F2F2"/>
<path d="M481.451 357.952V361.117H311.201V358.585L311.435 357.952L315.631 346.56H477.97L481.451 357.952Z" fill="#3F3D56"/>
<path d="M546.971 354.854C546.66 356.18 545.489 357.579 542.844 358.902C533.35 363.648 514.047 357.636 514.047 357.636C514.047 357.636 499.174 355.104 499.174 348.459C499.591 348.173 500.027 347.914 500.478 347.683C504.469 345.572 517.703 340.361 541.168 347.904C542.897 348.447 544.441 349.459 545.628 350.827C546.155 351.344 546.551 351.979 546.784 352.679C547.017 353.379 547.081 354.125 546.971 354.854Z" fill="#3F3D56"/>
<path opacity="0.1" d="M546.969 354.854C535.349 359.307 524.992 359.639 514.362 352.256C510.343 349.284 505.475 347.682 500.477 347.683C504.468 345.572 517.702 340.361 541.167 347.904C542.896 348.447 544.44 349.459 545.627 350.827C546.154 351.344 546.55 351.979 546.783 352.679C547.016 353.379 547.08 354.125 546.969 354.854Z" fill="black"/>
<path d="M532.401 352.256C534.673 352.256 536.515 351.689 536.515 350.99C536.515 350.291 534.673 349.725 532.401 349.725C530.129 349.725 528.287 350.291 528.287 350.99C528.287 351.689 530.129 352.256 532.401 352.256Z" fill="#F2F2F2"/>
<path opacity="0.1" d="M481.451 357.952V361.117H311.201V358.585L311.435 357.952H481.451Z" fill="black"/>
<path d="M94.6621 0.000372073C92.9343 -0.141492 91.2041 0.245013 89.7009 1.10867C88.2249 2.11947 87.2946 3.89029 86.345 5.53814C82.7143 11.9138 77.7991 17.4659 71.9107 21.8428C67.6218 24.9848 62.169 28.9024 62.9028 34.6955C63.2899 36.6086 63.9967 38.4428 64.9934 40.121C68.95 48.108 79.747 54.2802 78.685 63.3941C82.616 56.8131 77.358 53.5591 81.289 46.9782C83.161 43.8442 86.4131 40.3065 89.2395 42.2747C90.1859 42.9337 90.8073 44.1156 91.7927 44.6938C94.1439 46.0736 96.6453 43.4358 98.7265 41.5675C105.903 35.1249 116.11 36.8127 125.04 38.8201C129.257 39.7677 133.888 41.0111 136.38 45.0408C139.657 50.339 133.267 56.0611 131.652 62.0513C131.52 62.5617 131.514 63.0964 131.634 63.6098C131.754 64.1231 131.996 64.5998 132.34 64.999C132.685 65.3982 133.121 65.7081 133.611 65.9022C134.101 66.0963 134.631 66.1687 135.155 66.1134C137.835 65.8491 141.009 65.6324 141.168 64.4565C144.539 64.5765 148.67 64.1947 150.115 60.684C150.557 59.2949 150.79 57.8482 150.808 56.3908C151.338 50.4936 153.841 45.1136 155.499 39.5008C157.157 33.8881 157.878 27.3104 155.08 22.3341C154.081 20.6784 152.846 19.1773 151.414 17.8785C135.535 2.51173 114.657 -0.0224379 94.6621 0.000372073Z" fill="#2F2E41"/>
<path d="M82.1382 74.9053C82.1382 74.9053 85.5916 103.684 72.9291 105.986C60.2666 108.288 84.4405 147.427 84.4405 147.427L141.997 154.334L128.184 108.288C128.184 108.288 118.975 104.835 124.73 81.8121C130.486 58.7894 82.1382 74.9053 82.1382 74.9053Z" fill="#FFB8B8"/>
<path d="M47.0273 569.318L51.6323 632.631H75.8053L68.8993 569.318H47.0273Z" fill="#FFB8B8"/>
<path d="M224.303 449.6L227.756 502.552L254.233 491.041L243.872 447.298L224.303 449.6Z" fill="#FFB8B8"/>
<path d="M29.7617 327.579C29.7617 327.579 30.9128 394.345 37.8197 416.217C44.7266 438.089 43.5754 439.24 42.4243 442.693C41.2731 446.146 40.122 443.844 40.122 449.6C40.122 455.356 37.8197 546.295 40.122 554.353C42.4242 562.411 33.2152 576.225 40.122 577.376C47.0288 578.527 79.2606 577.376 80.4117 570.469C81.5629 563.562 71.2027 561.26 75.8072 556.656C80.4118 552.051 87.3186 457.658 87.3186 457.658L103.434 392.043L133.364 357.509H196.676L216.246 433.484C216.246 433.484 208.188 455.356 213.944 455.356C219.699 455.356 254.233 462.262 254.233 436.937C254.233 411.612 242.722 336.789 240.42 334.486C238.117 332.184 241.571 324.126 238.117 320.673C234.664 317.219 194.374 293.045 179.409 288.441C164.445 283.836 143.452 278.356 143.452 278.356L29.7617 327.579Z" fill="#2F2E41"/>
<path d="M254.232 481.832C254.232 481.832 236.965 476.076 228.907 493.343C220.849 510.61 224.302 515.215 224.302 515.215C224.302 515.215 250.778 524.424 255.383 519.82C257.386 517.816 263.747 517.12 270.295 516.973C280.268 516.749 282.922 502.64 273.503 499.354C273.222 499.256 272.938 499.171 272.65 499.099C263.441 496.797 254.232 481.832 254.232 481.832Z" fill="#2F2E41"/>
<path d="M108.038 93.8987C127.111 93.8987 142.572 78.4373 142.572 59.3647C142.572 40.292 127.111 24.8306 108.038 24.8306C88.9653 24.8306 73.5039 40.292 73.5039 59.3647C73.5039 78.4373 88.9653 93.8987 108.038 93.8987Z" fill="#FFB8B8"/>
<path d="M63.1436 120.375C63.1436 120.375 119.549 131.886 133.363 113.468C147.177 95.0499 152.932 165.269 152.932 165.269L159.839 238.942L149.479 279.232C149.479 279.232 95.3755 322.975 78.1084 326.428C60.8414 329.882 34.3652 332.184 34.3652 332.184C34.3652 332.184 42.4232 204.408 42.4232 202.106C42.4232 199.803 63.1436 120.375 63.1436 120.375Z" fill="#6C63FF"/>
<path d="M80.2977 98.7859C80.2977 98.7859 67.7479 91.5967 64.2945 98.5035C60.8411 105.41 28.6093 122.677 25.1559 122.677C21.7024 122.677 32.0627 218.222 27.4581 229.733C22.8536 241.244 0.982 325.277 13.6445 332.184C26.307 339.091 17.0979 325.277 29.7604 342.544C42.4229 359.811 104.584 359.811 108.038 352.905C111.491 345.998 80.4104 294.197 86.1661 245.849C91.9218 197.501 101.131 130.735 93.0729 121.526C85.015 112.317 80.2977 98.7859 80.2977 98.7859Z" fill="#2F2E41"/>
<path d="M121.852 106.561L123.455 101.043C123.455 101.043 171.35 116.922 173.653 127.282C175.955 137.642 174.804 210.164 166.746 215.919C158.688 221.675 147.177 230.884 155.235 244.698C163.292 258.511 172.502 273.476 179.408 274.627C186.315 275.778 198.978 283.836 195.524 291.894C192.071 299.952 150.63 284.988 150.63 284.988C150.63 284.988 123.003 264.267 124.154 232.035C125.305 199.803 121.852 106.561 121.852 106.561Z" fill="#2F2E41"/>
<path d="M162.141 242.396L134.513 294.197C134.513 294.197 94.2237 335.638 117.246 340.242C140.269 344.847 152.932 302.255 152.932 302.255L182.861 259.663L162.141 242.396Z" fill="#FFB8B8"/>
<path d="M96.3434 9.03608C94.9514 8.93294 93.5572 9.20337 92.3047 9.81942C91.1723 10.6465 90.2389 11.7161 89.5729 12.9501C86.5025 17.5687 82.5001 21.4941 77.8228 24.4741C74.3314 26.6949 69.8927 29.4639 70.49 33.5583C70.8143 34.9311 71.3914 36.2316 72.1918 37.393C75.4238 43.0953 76.7104 49.695 75.857 56.1937L85.4571 42.2397C86.981 40.0246 89.6284 37.5242 91.9292 38.9153C92.6996 39.3811 93.2054 40.2165 94.0076 40.6252C95.9216 41.6003 97.9578 39.736 99.652 38.4155C105.494 33.8619 113.803 35.0548 121.073 36.4736C124.505 37.1434 128.275 38.0222 130.304 40.8704C133.675 45.6035 130.155 52.4425 132.122 57.9104C132.673 57.5247 133.141 57.0324 133.498 56.4626C133.855 55.8928 134.094 55.2571 134.201 54.5932C136.946 54.678 140.308 54.4082 141.484 51.9268C141.842 50.9544 142.033 49.9284 142.048 48.8924C142.48 44.7243 144.517 40.9218 145.867 36.9547C147.217 32.9877 147.804 28.3386 145.526 24.8214C144.693 23.6296 143.687 22.5683 142.542 21.6722C129.615 10.8111 112.62 9.01996 96.3434 9.03608Z" fill="#2F2E41"/>
<path d="M162.141 122.677L172.866 125.524C172.866 125.524 197.826 189.443 192.07 233.186C186.315 276.93 182.861 267.72 182.861 267.72C182.861 267.72 173.652 247 152.932 251.605L162.141 122.677Z" fill="#2F2E41"/>
<path d="M48.6223 624.263C45.8464 628.036 46.403 633.428 43.944 637.414C41.8126 640.869 37.7957 642.681 35.1296 645.743C34.2789 646.76 33.5206 647.851 32.8635 649.003C30.3904 653.145 28.3802 658.454 30.8159 662.619C32.7753 665.969 36.8937 667.279 40.6709 668.171C45.4449 669.299 50.4052 670.202 55.2344 669.34C60.0636 668.478 64.7833 665.521 66.5051 660.927C66.8435 659.772 67.2458 658.637 67.7102 657.527C70.3277 652.374 78.5377 652.318 81.2165 647.197C83.0911 643.613 81.3679 639.28 79.6453 635.621L74.3842 624.444C72.6383 620.735 65.5606 622.868 61.8708 621.979C57.0586 620.82 52.0842 619.543 48.6223 624.263Z" fill="#2F2E41"/>
<path d="M10.1914 265.418L58.5391 340.242C58.5391 340.242 88.4687 378.23 97.6777 360.963C106.887 343.696 65.4459 314.917 65.4459 314.917L34.3652 257.36L10.1914 265.418Z" fill="#FFB8B8"/>
<path d="M34.3655 124.98L25.1564 122.677C25.1564 122.677 6.73826 128.433 2.13372 152.607C-2.47081 176.781 0.982583 273.476 6.73826 274.627C12.4939 275.778 35.1655 257.791 38.7945 261.604C42.4235 265.418 30.9121 245.849 34.3655 235.489C37.8189 225.128 34.3655 124.98 34.3655 124.98Z" fill="#2F2E41"/>
<path fill-rule="evenodd" clip-rule="evenodd" d="M441.076 246.003C438.819 245.253 436.755 243.895 435.06 242.046C433.364 240.197 432.088 237.911 431.338 235.382C427.094 222.212 425.845 167.123 433.96 156.219C436.632 152.611 440.439 150.325 444.571 149.846C476.997 147.128 509.563 147.412 541.947 150.696C544.141 151.511 546.144 152.876 547.809 154.69C549.473 156.505 550.755 158.721 551.56 161.175C556.349 186.308 556.135 212.337 550.936 237.365C549.465 240.782 547.055 243.565 544.07 245.295C535.331 250.11 451.188 250.11 441.076 246.003ZM475.907 220.229L515.356 197.004L475.907 173.779V220.229Z" fill="#FF0A0A"/>
</g>
<defs>
<clipPath id="clip0">
<rect width="711.188" height="669.683" fill="white"/>
</clipPath>
</defs>
</svg>
